<?xml version="1.0" encoding="UTF-8" standalone="no"?>
<!-- Created with Inkscape (http://www.inkscape.org/) -->

<svg
   version="1.1"
   id="svg1"
   width="1024"
   height="1024"
   viewBox="0 0 1024 1024"
   sodipodi:docname="DelphiHelmet.svg"
   inkscape:version="1.4.2 (f4327f4, 2025-05-13)"
   xml:space="preserve"
   xmlns:inkscape="http://www.inkscape.org/namespaces/inkscape"
   xmlns:sodipodi="http://sodipodi.sourceforge.net/DTD/sodipodi-0.dtd"
   xmlns="http://www.w3.org/2000/svg"
   xmlns:svg="http://www.w3.org/2000/svg"><defs
     id="defs1"><symbol
       id="sjjb-tourist.svg:memorial"
       viewBox="0 0 384.70127 517.99024"><title
         id="title26">Memorial</title><path
         opacity="0.75"
         d="m 58.300863,0 c -15.32795,0 -28.34375,13.047045 -28.34375,28.375 v 372 c 0.0584,1.44453 327.648367,0.78554 327.593747,0 v -372 C 357.55086,13.047045 344.50381,0 329.17586,0 Z m 55.874997,26.625 c 1.14947,3.7e-5 2.13808,0.425865 2.9375,1.28125 0.7994,0.855456 1.18749,1.995811 1.1875,3.4375 -1e-5,1.441763 -0.3881,2.568239 -1.1875,3.40625 -0.79942,0.838044 -1.78803,1.281282 -2.9375,1.28125 -1.15033,3.2e-5 -2.10727,-0.443206 -2.90625,-1.28125 -0.79898,-0.838011 -1.21875,-1.964487 -1.21875,-3.40625 0,-1.441689 0.41977,-2.582044 1.21875,-3.4375 0.79898,-0.855385 1.75592,-1.281213 2.90625,-1.28125 z m 65.5,0.0625 c 1.14946,3.7e-5 2.10683,0.425865 2.90625,1.28125 0.79939,0.855456 1.21874,1.995801 1.21875,3.4375 -1e-5,1.441763 -0.41936,2.599489 -1.21875,3.4375 -0.79942,0.838044 -1.75679,1.250032 -2.90625,1.25 -1.15033,3.2e-5 -2.13853,-0.411956 -2.9375,-1.25 -0.5573,-0.584525 -0.89392,-1.340492 -1.0625,-2.21875 -0.0802,0.29446 -0.17561,0.590009 -0.3125,0.9375 -0.33681,0.854934 -0.78015,1.719461 -1.3125,2.625 -0.44851,-0.301836 -1.01736,-0.619244 -1.71875,-0.9375 -0.70143,-0.318192 -1.47117,-0.468718 -2.3125,-0.46875 -0.72924,3.2e-5 -1.33921,0.235256 -1.84375,0.6875 -0.50456,0.452292 -0.78125,1.151933 -0.78125,2.125 v 1.21875 h 6.25 v 7.5 h -6.25 v 16.78125 h -8.34375 V 39.0625 c 0,-0.435871 -0.0138,-1.041466 0,-1.8125 0.0137,-0.770985 0.0684,-1.405316 0.125,-1.875 0.36461,-2.71563 1.31855,-4.762094 2.875,-6.1875 1.55645,-1.425326 3.72346,-2.156214 6.5,-2.15625 0.56146,3.6e-5 1.15045,0.04113 1.78125,0.125 0.63079,0.08395 1.25488,0.207225 1.84375,0.375 1.00994,0.301887 1.86451,0.771327 2.59375,1.375 0.42207,0.349448 0.69724,0.789561 0.875,1.3125 0.16527,-0.899079 0.52828,-1.644564 1.09375,-2.25 0.79897,-0.855385 1.78717,-1.281213 2.9375,-1.28125 z m -4.03125,3.53125 c -0.0682,0.371282 -0.0937,0.766142 -0.0937,1.1875 0,0.436114 0.0519,0.837882 0.125,1.21875 0.11715,-0.42996 0.18749,-0.826798 0.1875,-1.125 0,-0.480106 -0.0894,-0.9007 -0.21875,-1.28125 z m -43.875,-3.3125 c 0.56146,3.6e-5 1.18168,0.04113 1.8125,0.125 0.63078,0.08395 1.22362,0.207225 1.8125,0.375 1.00994,0.301887 1.89575,0.740077 2.625,1.34375 0.72921,0.603744 1.09374,1.485153 1.09375,2.625 -1e-5,0.502428 -0.16322,1.176365 -0.5,2.03125 -0.33681,0.854934 -0.78015,1.750711 -1.3125,2.65625 -0.44851,-0.301836 -1.01735,-0.619244 -1.71875,-0.9375 -0.70141,-0.318192 -1.47116,-0.468718 -2.3125,-0.46875 -0.72924,3.2e-5 -1.37047,0.204006 -1.875,0.65625 -0.50457,0.452292 -0.75001,1.183183 -0.75,2.15625 v 1.1875 h 6.21875 v 7.5 h -6.21875 v 16.8125 h -8.375 v -24.0625 c 0,-0.435871 0.0174,-1.010216 0.0312,-1.78125 0.0137,-0.770985 0.0374,-1.405316 0.0937,-1.875 0.36462,-2.71563 1.31854,-4.793351 2.875,-6.21875 1.55644,-1.425326 3.72346,-2.124964 6.5,-2.125 z M 142.42586,27.25 c 0.67359,3.6e-5 1.33795,0.06786 1.96875,0.21875 0.63079,0.150958 1.1795,0.426776 1.65625,0.8125 0.47672,0.385792 0.86181,0.906161 1.15625,1.59375 0.29443,0.687626 0.43749,1.583947 0.4375,2.65625 V 62.6875 c -1.14947,0.435904 -2.16467,0.65625 -3.0625,0.65625 -1.28985,0 -2.2849,-0.193606 -3,-0.5625 -0.71511,-0.368845 -1.24326,-0.83378 -1.59375,-1.4375 -0.35049,-0.603703 -0.55481,-1.305858 -0.625,-2.09375 -0.0702,-0.787875 -0.125,-1.628209 -0.125,-2.5 V 27.59375 c 0.33636,-0.03373 0.69788,-0.08971 1.0625,-0.15625 0.30812,-0.0675 0.65252,-0.122454 1.03125,-0.15625 0.37873,-0.03373 0.72914,-0.03122 1.09375,-0.03125 z m -54.874997,0.65625 c 0.67358,3.6e-5 1.3067,0.06786 1.9375,0.21875 0.63079,0.150958 1.1795,0.426776 1.65625,0.8125 0.47672,0.385792 0.89306,0.906153 1.1875,1.59375 0.29443,0.687618 0.43749,1.583947 0.4375,2.65625 V 49.375 c 0.14036,-0.736736 0.3477,-1.466634 0.65625,-2.1875 0.30854,-0.720866 0.71075,-1.419989 1.1875,-2.125 l 2.28125,-3.46875 c 0.53235,-0.804248 1.10464,-1.506904 1.75,-2.09375 0.64534,-0.586813 1.534997,-0.874984 2.656247,-0.875 0.64534,1.6e-5 1.28913,0.09463 1.90625,0.3125 0.61708,0.217984 1.14824,0.450694 1.625,0.71875 0.53234,0.301884 1.02324,0.661887 1.5,1.03125 l -5.75,9.65625 6.8125,12.40625 c -1.85132,0.904536 -3.55144,1.375 -5.09375,1.375 -1.3181,0 -2.336297,-0.30506 -3.093747,-0.875 -0.75749,-0.56994 -1.4394,-1.282964 -2,-2.1875 l -2.6875,-4.5 c -0.47675,-0.770484 -0.84428,-1.485504 -1.125,-2.15625 -0.28074,-0.670713 -0.48464,-1.411956 -0.625,-2.25 V 63.5625 h -8.4375 V 28.25 c 0.33636,-0.03373 0.69788,-0.08971 1.0625,-0.15625 0.30812,-0.0675 0.6525,-0.0912 1.03125,-0.125 0.37872,-0.03373 0.76038,-0.06247 1.125,-0.0625 z m -12.53125,0.4375 c 0.67359,3.6e-5 1.3067,0.09911 1.9375,0.25 0.63079,0.150958 1.21075,0.395526 1.6875,0.78125 0.47672,0.385792 0.86181,0.937397 1.15625,1.625 0.29441,0.687619 0.43749,1.552697 0.4375,2.625 v 30.1875 c -1.14949,0.435904 -2.19592,0.65625 -3.09375,0.65625 -1.28985,0 -2.2849,-0.193606 -3,-0.5625 -0.71511,-0.368845 -1.24327,-0.83378 -1.59375,-1.4375 -0.35049,-0.603703 -0.55482,-1.305858 -0.625,-2.09375 -0.0702,-0.787875 -0.0937,-1.628209 -0.0937,-2.5 V 28.71875 c 0.33631,-0.03373 0.66658,-0.08971 1.0312,-0.15625 0.30812,-0.0675 0.65252,-0.122454 1.03125,-0.15625 0.37873,-0.03373 0.76038,-0.06247 1.125,-0.0625 z m 162.343747,0.0625 c 0.56146,3.6e-5 1.15043,0.04113 1.78125,0.125 0.63078,0.08395 1.25487,0.207225 1.84375,0.375 1.00994,0.301887 1.86451,0.771327 2.59375,1.375 0.54691,0.452813 0.89451,1.026885 1.03125,1.78125 v -2.84375 c 0.33636,-0.03373 0.69788,-0.08971 1.0625,-0.15625 0.30812,-0.0675 0.65252,-0.122454 1.03125,-0.15625 0.37873,-0.03373 0.76038,-0.06247 1.125,-0.0625 0.67359,3.6e-5 1.30668,0.06786 1.9375,0.21875 0.63079,0.150958 1.17951,0.426776 1.65625,0.8125 0.47674,0.385792 0.86181,0.937413 1.15625,1.625 0.29441,0.687619 0.43749,1.552697 0.4375,2.625 v 30.1875 c -1.14949,0.435904 -2.16467,0.65625 -3.0625,0.65625 -1.28985,0 -2.2849,-0.193606 -3,-0.5625 -0.71511,-0.368845 -1.24327,-0.86503 -1.59375,-1.46875 -0.35049,-0.603703 -0.55482,-1.274608 -0.625,-2.0625 -0.0702,-0.787875 -0.125,-1.628209 -0.125,-2.5 V 33.4375 c -0.0743,0.415204 -0.21129,0.894525 -0.4375,1.46875 -0.33682,0.854934 -0.78015,1.750711 -1.3125,2.65625 -0.44851,-0.301836 -1.01735,-0.619244 -1.71875,-0.9375 -0.70141,-0.318192 -1.47116,-0.468718 -2.3125,-0.46875 -0.72924,3.2e-5 -1.33922,0.235256 -1.84375,0.6875 -0.50457,0.452292 -0.75001,1.151933 -0.75,2.125 v 1.21875 h 6.21875 v 7.46875 h -6.21875 v 16.8125 h -8.375 V 40.4375 c 0,-0.435871 -0.0138,-1.041466 0,-1.8125 0.0137,-0.770985 0.0684,-1.405316 0.125,-1.875 0.36462,-2.71563 1.31854,-4.793349 2.875,-6.21875 1.55644,-1.425326 3.72346,-2.124964 6.5,-2.125 z m 7.25,5.03125 c 0.0363,-0.202937 0.0625,-0.397552 0.0625,-0.5625 -1e-5,-0.284962 -0.0169,-0.561045 -0.0625,-0.8125 z m 46.40625,-5 c 0.56145,3.6e-5 1.15043,0.04113 1.78125,0.125 0.63078,0.08395 1.25487,0.207225 1.84375,0.375 1.00994,0.301887 1.86451,0.771327 2.59375,1.375 0.72921,0.60375 1.09372,1.485153 1.09375,2.625 -3e-5,0.502428 -0.16323,1.176365 -0.5,2.03125 -0.33681,0.854934 -0.78015,1.719461 -1.3125,2.625 -0.44851,-0.301836 -1.01736,-0.587994 -1.71875,-0.90625 -0.70143,-0.318192 -1.47116,-0.499968 -2.3125,-0.5 -0.72924,3.2e-5 -1.33921,0.235256 -1.84375,0.6875 -0.50456,0.452292 -0.75001,1.151933 -0.75,2.125 v 1.21875 h 6.21875 v 7.5 h -6.21875 V 64.5 h -8.375 V 40.46875 c 0,-0.435871 -0.0138,-1.041466 0,-1.8125 0.0137,-0.770985 0.0684,-1.374066 0.125,-1.84375 0.36461,-2.71563 1.31855,-4.793349 2.875,-6.21875 1.55645,-1.425326 3.72345,-2.156214 6.5,-2.15625 z M 219.83211,28.5 c 0.67271,3.6e-5 1.3375,0.06786 1.96875,0.21875 0.63121,0.150958 1.1795,0.426776 1.65625,0.8125 0.47672,0.385792 0.8618,0.906166 1.15625,1.59375 0.2944,0.687636 0.43749,1.583931 0.4375,2.65625 v 30.375 h -6.3125 c -0.42112,0 -0.78865,-0.14019 -1.125,-0.375 -0.33639,-0.234826 -0.50001,-0.7295 -0.5,-1.5 -0.39286,0.602684 -1.01954,1.169709 -1.875,1.65625 -0.85548,0.486541 -1.92892,0.71875 -3.21875,0.71875 -0.95347,0 -1.88685,-0.193622 -2.8125,-0.5625 -0.92565,-0.368878 -1.75708,-1.015573 -2.5,-1.9375 -0.74292,-0.921927 -1.34946,-2.188593 -1.8125,-3.78125 -0.46304,-1.592657 -0.6875,-3.58517 -0.6875,-6 0,-2.413795 0.1902,-4.448411 0.625,-6.125 0.4348,-1.676541 1.02076,-3.054644 1.75,-4.09375 0.72922,-1.039073 1.57778,-1.780316 2.53125,-2.25 0.95347,-0.469635 1.96179,-0.718734 3,-0.71875 0.67273,1.6e-5 1.2797,0.113499 1.8125,0.28125 0.53279,0.167832 0.965,0.34458 1.34375,0.5625 0.37872,0.217968 0.69913,0.438314 0.9375,0.65625 0.23836,0.217968 0.38486,0.368494 0.46875,0.46875 v -12.3125 c 0.33722,-0.03373 0.69873,-0.08971 1.0625,-0.15625 0.30897,-0.0675 0.63538,-0.122454 1,-0.15625 0.36461,-0.03373 0.72912,-0.03122 1.09375,-0.03125 z m 39.71875,0.34375 c 0.67359,3.6e-5 1.33795,0.06786 1.96875,0.21875 0.63079,0.150958 1.17951,0.426776 1.65625,0.8125 0.47674,0.385792 0.86181,0.937413 1.15625,1.625 0.29441,0.687619 0.4375,1.552697 0.4375,2.625 v 16.1875 c 0.14036,-0.736736 0.37893,-1.466634 0.6875,-2.1875 0.30854,-0.720866 0.71075,-1.419989 1.1875,-2.125 l 2.25,-3.46875 c 0.53235,-0.804248 1.13589,-1.506904 1.78125,-2.09375 0.64532,-0.586813 1.535,-0.874984 2.65625,-0.875 0.64532,1.6e-5 1.25788,0.125879 1.875,0.34375 0.61708,0.217984 1.1795,0.450694 1.65625,0.71875 0.53235,0.301884 1.02324,0.630637 1.5,1 l -5.75,9.65625 6.8125,12.4375 c -1.85134,0.904536 -3.55144,1.34375 -5.09375,1.34375 -1.3181,0 -2.36755,-0.27381 -3.125,-0.84375 C 270.44962,63.64881 269.79896,62.904536 269.23836,62 l -2.6875,-4.46875 c -0.47675,-0.770484 -0.84427,-1.516754 -1.125,-2.1875 -0.28074,-0.670713 -0.51589,-1.411956 -0.65625,-2.25 V 64.5 h -8.40625 V 29.21875 c 0.33636,-0.03373 0.69789,-0.08971 1.0625,-0.15625 0.30812,-0.0675 0.65252,-0.122454 1.03125,-0.15625 0.37873,-0.03373 0.72913,-0.06247 1.09375,-0.0625 z m 53.8125,0 c 0.67271,3.6e-5 1.3375,0.06786 1.96875,0.21875 0.63119,0.150958 1.17949,0.426776 1.65625,0.8125 0.47671,0.385792 0.8618,0.937413 1.15625,1.625 0.29441,0.687636 0.43747,1.552681 0.4375,2.625 V 64.5 h -6.3125 c -0.42112,0 -0.78864,-0.10894 -1.125,-0.34375 -0.33638,-0.234826 -0.50001,-0.7295 -0.5,-1.5 -0.39287,0.602684 -1.01954,1.138459 -1.875,1.625 C 307.91413,64.767791 306.84068,65 305.55086,65 c -0.95348,0 -1.88685,-0.162372 -2.8125,-0.53125 -0.92566,-0.368878 -1.75708,-1.015573 -2.5,-1.9375 -0.74292,-0.921927 -1.34946,-2.188593 -1.8125,-3.78125 -0.46304,-1.592657 -0.6875,-3.58517 -0.6875,-6 0,-2.413795 0.1902,-4.479661 0.625,-6.15625 0.4348,-1.676541 1.02078,-3.023394 1.75,-4.0625 0.72922,-1.039073 1.57778,-1.780316 2.53125,-2.25 0.95347,-0.469635 1.96179,-0.718734 3,-0.71875 0.67273,1.6e-5 1.2797,0.08225 1.8125,0.25 0.53279,0.167832 0.965,0.37583 1.34375,0.59375 0.37873,0.217968 0.69911,0.438314 0.9375,0.65625 0.23835,0.217968 0.38486,0.368494 0.46875,0.46875 v -12.3125 c 0.33722,-0.03373 0.69873,-0.08971 1.0625,-0.15625 0.30896,-0.0675 0.63537,-0.122454 1,-0.15625 0.36459,-0.03373 0.72912,-0.06247 1.09375,-0.0625 z m -118.8125,9.8125 c 2.29979,1.6e-5 4.3203,0.411989 6.03125,1.25 0.7566,0.369395 1.38412,0.823979 1.875,1.34375 0.49084,0.51982 0.71872,1.139791 0.71875,1.84375 -3e-5,0.602717 -0.14651,1.317737 -0.46875,2.15625 -0.32226,0.838562 -0.74204,1.634747 -1.21875,2.40625 -0.84222,-0.771503 -1.69979,-1.388944 -2.625,-1.875 -0.92524,-0.486008 -1.89028,-0.718718 -2.84375,-0.71875 -1.20596,3.2e-5 -1.8125,0.412005 -1.8125,1.25 0,0.536192 0.23901,0.933788 0.6875,1.21875 0.44848,0.284978 1.01433,0.517704 1.6875,0.71875 0.67316,0.201078 1.4022,0.4358 2.1875,0.6875 0.78526,0.251716 1.51431,0.622103 2.1875,1.125 0.67315,0.50293 1.23856,1.190725 1.6875,2.0625 0.4489,0.871808 0.65624,2.029549 0.65625,3.4375 -1e-5,2.682918 -0.79032,4.813593 -2.375,6.40625 -1.58471,1.592657 -3.87724,2.40625 -6.90625,2.40625 -1.73919,0 -3.09491,-0.181258 -4.0625,-0.5 -0.9676,-0.318742 -1.75188,-0.633118 -2.3125,-0.96875 -0.72922,-0.435888 -1.21969,-0.917696 -1.5,-1.4375 -0.2803,-0.519787 -0.40625,-1.05506 -0.40625,-1.625 0,-0.871791 0.14951,-1.724456 0.5,-2.5625 0.35049,-0.838011 0.77026,-1.66447 1.21875,-2.46875 0.33636,0.368376 0.72145,0.712524 1.15625,1.03125 0.43478,0.318742 0.90126,0.606912 1.40625,0.875 0.50498,0.268088 1.0297,0.474074 1.5625,0.625 0.53279,0.150942 1.02626,0.218766 1.53125,0.21875 0.72921,1.6e-5 1.25393,-0.121321 1.5625,-0.40625 0.30854,-0.284962 0.46874,-0.657846 0.46875,-1.09375 -1e-5,-0.503415 -0.22446,-0.916882 -0.6875,-1.21875 -0.46304,-0.301836 -1.04559,-0.546926 -1.71875,-0.78125 -0.67317,-0.234308 -1.40567,-0.510632 -2.21875,-0.8125 -0.81311,-0.301852 -1.54559,-0.73018 -2.21875,-1.25 -0.67317,-0.519787 -1.25614,-1.207582 -1.71875,-2.0625 -0.46261,-0.854901 -0.6875,-1.968511 -0.6875,-3.34375 0,-1.340407 0.24201,-2.49414 0.71875,-3.5 0.47672,-1.005811 1.10727,-1.846144 1.90625,-2.5 0.79897,-0.653823 1.71222,-1.149992 2.75,-1.46875 1.03778,-0.318709 2.13091,-0.468734 3.28125,-0.46875 z m -81.125,0.03125 c 0.67359,1.6e-5 1.33795,0.06792 1.96875,0.21875 0.63079,0.150942 1.17951,0.427282 1.65625,0.8125 0.47674,0.385266 0.86181,0.906163 1.15625,1.59375 0.29441,0.687636 0.4375,1.583931 0.4375,2.65625 v 17.8125 c 0,0.737756 -0.0377,1.629007 -0.0937,2.71875 -0.056,1.08974 -0.17901,2.06571 -0.375,2.9375 -0.30899,1.34144 -0.79258,2.46993 -1.4375,3.375 -0.64492,0.905044 -1.35685,1.633924 -2.15625,2.187504 -0.7994,0.55355 -1.59315,0.95318 -2.40625,1.1875 -0.8131,0.23431 -1.53613,0.34373 -2.125,0.34375 -1.20596,-2e-5 -2.06396,-0.25947 -2.625,-0.8125 -0.56104,-0.55307 -0.96025,-1.36413 -1.15625,-2.4375 -0.0847,-0.435904 -0.14556,-0.888984 -0.1875,-1.375004 -0.042,-0.48604 -0.0998,-1.16197 -0.15625,-2 0.89784,-0.1003 1.62647,-0.2919 2.1875,-0.59375 0.56104,-0.30185 1.00395,-0.68658 1.3125,-1.15625 0.30855,-0.46967 0.51288,-1.036174 0.625,-1.65625 0.11218,-0.620076 0.18749,-1.293494 0.1875,-2.03125 v -23.4375 c 0.33636,-0.03381 0.66664,-0.08976 1.03125,-0.15625 0.30812,-0.06746 0.65252,-0.122923 1.03125,-0.15625 0.37873,-0.03316 0.76038,-0.03125 1.125,-0.03125 z m 65.5,0.0625 c 0.67358,1.6e-5 1.3067,0.06792 1.9375,0.21875 0.63079,0.150942 1.1795,0.427282 1.65625,0.8125 0.47672,0.385266 0.86181,0.937413 1.15625,1.625 0.29443,0.687636 0.46874,1.552681 0.46875,2.625 v 17.8125 c -1e-5,0.737756 -0.0378,1.660257 -0.0937,2.75 -0.056,1.08974 -0.17901,2.06571 -0.375,2.9375 -0.30899,1.34144 -0.7926,2.46993 -1.4375,3.375 -0.64493,0.905044 -1.35685,1.633924 -2.15625,2.187504 -0.79942,0.55355 -1.6244,0.92193 -2.4375,1.15625 -0.81311,0.23431 -1.5049,0.37498 -2.09375,0.375 -1.20596,-2e-5 -2.09522,-0.29072 -2.65625,-0.84375 -0.56104,-0.55307 -0.92901,-1.36413 -1.125,-2.4375 -0.0847,-0.435904 -0.14556,-0.888984 -0.1875,-1.375004 -0.0419,-0.48604 -0.0998,-1.16197 -0.15625,-2 0.89784,-0.1003 1.62646,-0.2919 2.1875,-0.59375 0.56104,-0.30185 1.00395,-0.68658 1.3125,-1.15625 0.30854,-0.46967 0.51287,-1.004924 0.625,-1.625 0.11205,-0.620076 0.15625,-1.324744 0.15625,-2.0625 v -23.4375 c 0.33636,-0.03381 0.69788,-0.05851 1.0625,-0.125 0.30812,-0.06746 0.6525,-0.122923 1.03125,-0.15625 0.37872,-0.03316 0.76038,-0.0625 1.125,-0.0625 z m 36.34375,7.84375 c -0.95347,1.6e-5 -1.61826,0.494189 -1.96875,1.5 -0.35049,1.00586 -0.53125,2.381433 -0.53125,4.125 0,0.80428 0.0411,1.562397 0.125,2.25 0.0839,0.687619 0.22693,1.292696 0.4375,1.8125 0.21054,0.519804 0.50737,0.916898 0.84375,1.21875 0.33635,0.301852 0.745,0.46875 1.25,0.46875 0.33635,0 0.61606,-0.04295 0.8125,-0.09375 0.19642,-0.05064 0.32151,-0.09119 0.40625,-0.125 V 46.9375 c -0.16861,-0.133955 -0.38965,-0.231098 -0.65625,-0.28125 -0.26662,-0.05015 -0.49452,-0.0625 -0.71875,-0.0625 z m 93.1875,0.375 c -0.76834,0.110026 -1.31833,0.619915 -1.625,1.5 -0.3505,1.00586 -0.53126,2.381433 -0.53125,4.125 -10e-6,0.80428 0.0411,1.531147 0.125,2.21875 0.0839,0.687619 0.22695,1.292696 0.4375,1.8125 0.21055,0.519804 0.50737,0.948148 0.84375,1.25 0.33636,0.301852 0.74501,0.4375 1.25,0.4375 0.33636,0 0.61605,-0.0117 0.8125,-0.0625 0.19641,-0.05064 0.32151,-0.09119 0.40625,-0.125 V 47.3125 c -0.16863,-0.133955 -0.38965,-0.231098 -0.65625,-0.28125 -0.26663,-0.05015 -0.49452,-0.0625 -0.71875,-0.0625 -0.11919,2e-6 -0.23399,-0.01572 -0.34375,0 z M 132.67586,77.375004 c 0.67359,5e-5 1.3067,0.0992 1.9375,0.25 0.63079,0.15094 1.21075,0.39553 1.6875,0.78125 0.47672,0.3858 0.86181,0.93741 1.15625,1.625 0.29441,0.68764 0.43749,1.55268 0.4375,2.625 v 30.187496 c -1.14949,0.4359 -2.19592,0.65625 -3.09375,0.65625 -1.28985,0 -2.2849,-0.19362 -3,-0.5625 -0.71511,-0.36886 -1.24326,-0.8338 -1.59375,-1.4375 -0.35049,-0.6037 -0.55481,-1.30586 -0.625,-2.09375 -0.0702,-0.78788 -0.125,-1.62821 -0.125,-2.5 V 77.750004 c 0.33636,-0.0336 0.69788,-0.0896 1.0625,-0.15625 0.30812,-0.0675 0.65252,-0.12244 1.03125,-0.15625 0.37873,-0.0336 0.76038,-0.0625 1.125,-0.0625 z m 11.75,0 c 0.67359,5e-5 1.33795,0.0992 1.96875,0.25 0.63079,0.15094 1.1795,0.39553 1.65625,0.78125 0.47672,0.3858 0.86181,0.93741 1.15625,1.625 0.29443,0.68764 0.43749,1.55268 0.4375,2.625 v 16.1875 c 0.14036,-0.73672 0.37895,-1.43537 0.6875,-2.15625 0.30854,-0.72085 0.71075,-1.45122 1.1875,-2.15625 l 2.25,-3.46875 c 0.53235,-0.80423 1.13589,-1.50689 1.78125,-2.09375 0.64534,-0.5868 1.535,-0.87498 2.65625,-0.875 0.64534,2e-5 1.25788,0.12588 1.875,0.34375 0.61708,0.21798 1.17949,0.45069 1.65625,0.71875 0.53234,0.30188 1.02325,0.63064 1.5,1 l -5.75,9.65625 6.8125,12.437496 c -1.85132,0.90454 -3.55144,1.34375 -5.09375,1.34375 -1.3181,0 -2.36755,-0.27381 -3.125,-0.84375 -0.75748,-0.56994 -1.40815,-1.31421 -1.96875,-2.21875 l -2.6875,-4.46875 c -0.47675,-0.77048 -0.84428,-1.51675 -1.125,-2.1875 -0.28074,-0.67071 -0.51589,-1.41196 -0.65625,-2.25 v 11.40625 h -8.40625 V 77.750004 c 0.33636,-0.0336 0.69788,-0.0896 1.0625,-0.15625 0.30812,-0.0675 0.65252,-0.12244 1.03125,-0.15625 0.37873,-0.0336 0.72914,-0.0625 1.09375,-0.0625 z m -23.9375,0.25 c 0.67271,5e-5 1.30625,0.0679 1.9375,0.21875 0.63121,0.15094 1.1795,0.42678 1.65625,0.8125 0.47672,0.3858 0.8618,0.93741 1.15625,1.625 0.2944,0.68764 0.46874,1.55268 0.46875,2.625 v 30.374996 h -6.3125 c -0.42112,0 -0.8199,-0.10896 -1.15625,-0.34375 -0.33638,-0.23483 -0.50001,-0.7295 -0.5,-1.5 -0.39286,0.60268 -1.01954,1.13846 -1.875,1.625 -0.85548,0.48654 -1.92892,0.71875 -3.21875,0.71875 -0.95347,0 -1.88685,-0.16237 -2.8125,-0.53125 -0.92566,-0.36888 -1.75708,-1.01557 -2.5,-1.9375 -0.74292,-0.92193 -1.34946,-2.18858 -1.8125,-3.78125 -0.46304,-1.59264 -0.6875,-3.58517 -0.6875,-6 0,-2.413786 0.22145,-4.479656 0.65625,-6.156246 0.4348,-1.67654 1.02078,-3.02339 1.75,-4.0625 0.72922,-1.03907 1.54653,-1.78032 2.5,-2.25 0.95347,-0.46965 1.96179,-0.71873 3,-0.71875 0.67273,2e-5 1.27969,0.0823 1.8125,0.25 0.53277,0.16783 0.99625,0.37583 1.375,0.59375 0.37872,0.21797 0.66788,0.40708 0.90625,0.625 0.23836,0.21798 0.41611,0.39974 0.5,0.5 v -12.34375 c 0.33722,-0.0336 0.66748,-0.0584 1.03125,-0.125 0.30897,-0.0675 0.66663,-0.12244 1.03125,-0.15625 0.36461,-0.0336 0.72912,-0.0625 1.09375,-0.0625 z m -23.093744,0.0312 c 0.56146,3e-5 1.15045,0.0412 1.78125,0.125 0.63079,0.084 1.254874,0.20723 1.843744,0.375 1.00996,0.30188 1.8645,0.77133 2.59375,1.375 0.7292,0.60375 1.09374,1.4539 1.09375,2.59375 -1e-5,0.50243 -0.16322,1.17636 -0.5,2.03125 -0.33681,0.85493 -0.78015,1.75071 -1.3125,2.65625 -0.44851,-0.30184 -1.01736,-0.61924 -1.71875,-0.9375 -0.70143,-0.31819 -1.471164,-0.46872 -2.312494,-0.46875 -0.72924,3e-5 -1.33921,0.23526 -1.84375,0.6875 -0.50456,0.45229 -0.75,1.15193 -0.75,2.125 v 1.21875 h 6.218744 v 7.46875 H 96.269616 V 113.7187 h -8.375 V 89.687454 c 0,-0.43587 0.0174,-1.04148 0.0312,-1.8125 0.0137,-0.77099 0.0373,-1.40532 0.0937,-1.875 0.36461,-2.71563 1.31855,-4.79336 2.875,-6.21875 1.55645,-1.42533 3.72346,-2.12497 6.5,-2.125 z m 201.656254,0.625 c 1.14946,3e-5 2.13808,0.42586 2.9375,1.28125 0.79939,0.85545 1.18749,2.02704 1.1875,3.46875 -10e-6,1.44176 -0.38811,2.56824 -1.1875,3.40625 -0.79942,0.83804 -1.78804,1.25003 -2.9375,1.25 -1.15033,3e-5 -2.10728,-0.41196 -2.90625,-1.25 -0.79898,-0.83801 -1.1875,-1.96449 -1.1875,-3.40625 0,-1.44171 0.38852,-2.6133 1.1875,-3.46875 0.79897,-0.85539 1.75592,-1.28122 2.90625,-1.28125 z m -109,0.0312 c 0.67359,5e-5 1.33793,0.0679 1.96875,0.21875 0.63079,0.15094 1.17951,0.42678 1.65625,0.8125 0.47674,0.3858 0.86181,0.90616 1.15625,1.59375 0.29441,0.68764 0.43749,1.58393 0.4375,2.65625 v 16.1875 c 0.14036,-0.73672 0.34768,-1.46662 0.65625,-2.1875 0.30854,-0.72085 0.71075,-1.41997 1.1875,-2.125 l 2.28125,-3.46875 c 0.53235,-0.80423 1.10464,-1.50689 1.75,-2.09375 0.64532,-0.5868 1.535,-0.87498 2.65625,-0.875 0.64532,2e-5 1.28912,0.0946 1.90625,0.3125 0.61708,0.21798 1.14825,0.48194 1.625,0.75 0.53235,0.30188 1.05449,0.63064 1.53125,1 l -5.78125,9.656246 6.8125,12.40625 c -1.85134,0.90454 -3.52019,1.375 -5.0625,1.375 -1.3181,0 -2.36755,-0.30506 -3.125,-0.875 -0.75748,-0.56994 -1.40815,-1.28296 -1.96875,-2.1875 l -2.71875,-4.5 c -0.47675,-0.77048 -0.84427,-1.4855 -1.125,-2.15625 -0.28074,-0.67071 -0.48464,-1.41196 -0.625,-2.25 v 11.40625 h -8.40625 V 78.656154 c 0.33636,-0.0336 0.66663,-0.0896 1.03125,-0.15625 0.30812,-0.0675 0.65252,-0.0912 1.03125,-0.125 0.37873,-0.0336 0.76038,-0.0625 1.125,-0.0625 z m 30.5625,0.125 c 0.56146,3e-5 1.15045,0.0412 1.78125,0.125 0.63079,0.084 1.25488,0.20723 1.84375,0.375 1.00994,0.30188 1.86451,0.74008 2.59375,1.34375 0.72921,0.60375 1.09374,1.48515 1.09375,2.625 -1e-5,0.50243 -0.16322,1.17636 -0.5,2.03125 -0.33681,0.85493 -0.7489,1.75071 -1.28125,2.65625 -0.44851,-0.30184 -1.04861,-0.61924 -1.75,-0.9375 -0.70143,-0.31819 -1.47117,-0.46872 -2.3125,-0.46875 -0.72924,3e-5 -1.33921,0.20401 -1.84375,0.65625 -0.50456,0.45229 -0.75,1.18318 -0.75,2.15625 v 1.1875 h 6.21875 v 7.5 h -6.21875 V 114.4999 h -8.375 V 90.437404 c 0,-0.43587 0.0174,-1.04148 0.0312,-1.8125 0.0137,-0.77099 0.0372,-1.37407 0.0937,-1.84375 0.36461,-2.71563 1.31855,-4.79336 2.875,-6.21875 1.55645,-1.42533 3.72346,-2.12497 6.5,-2.125 z m 40.78125,0.71875 c 0.67273,5e-5 1.33751,0.0679 1.96875,0.21875 0.63121,0.15094 1.17949,0.42678 1.65625,0.8125 0.47671,0.3858 0.8618,0.90616 1.15625,1.59375 0.29441,0.68764 0.43747,1.58393 0.4375,2.65625 V 114.8124 h -6.3125 c -0.42112,0 -0.78864,-0.14021 -1.125,-0.375 -0.33638,-0.23483 -0.50001,-0.7295 -0.5,-1.5 -0.39287,0.60268 -1.01953,1.13846 -1.875,1.625 -0.85548,0.48654 -1.92893,0.75 -3.21875,0.75 -0.95348,0 -1.88685,-0.19362 -2.8125,-0.5625 -0.92566,-0.36888 -1.75709,-1.01557 -2.5,-1.9375 -0.74293,-0.92193 -1.34946,-2.18858 -1.8125,-3.78125 -0.46304,-1.59264 -0.6875,-3.58517 -0.6875,-6 0,-2.41379 0.1902,-4.448406 0.625,-6.124996 0.43478,-1.67654 1.02078,-3.05464 1.75,-4.09375 0.72922,-1.03907 1.57777,-1.78032 2.53125,-2.25 0.95346,-0.46965 1.96179,-0.71873 3,-0.71875 0.67273,2e-5 1.27969,0.1135 1.8125,0.28125 0.53279,0.16783 0.965,0.34458 1.34375,0.5625 0.37872,0.21797 0.69911,0.43833 0.9375,0.65625 0.23835,0.21798 0.38486,0.36849 0.46875,0.46875 v -12.3125 c 0.3372,-0.0336 0.69872,-0.0896 1.0625,-0.15625 0.30896,-0.0675 0.63537,-0.12244 1,-0.15625 0.36459,-0.0336 0.72913,-0.0312 1.09375,-0.0312 z m 11.78125,0 c 0.67359,5e-5 1.3067,0.0679 1.9375,0.21875 0.63079,0.15094 1.17951,0.42678 1.65625,0.8125 0.47674,0.3858 0.86181,0.90616 1.15625,1.59375 0.29441,0.68764 0.46875,1.58393 0.46875,2.65625 V 100.6249 c 0.14036,-0.736716 0.34768,-1.466616 0.65625,-2.187496 0.30854,-0.72085 0.71076,-1.45122 1.1875,-2.15625 l 2.28125,-3.46865 c 0.53235,-0.80423 1.10464,-1.47564 1.75,-2.0625 0.64532,-0.5868 1.535,-0.90623 2.65625,-0.90625 0.64532,2e-5 1.25788,0.12588 1.875,0.34375 0.61708,0.21798 1.1795,0.45069 1.65625,0.71875 0.53235,0.30188 1.02324,0.63064 1.5,1 l -5.75,9.656246 6.8125,12.4375 c -1.85134,0.90454 -3.55144,1.34375 -5.09375,1.34375 -1.3181,0 -2.3363,-0.27381 -3.09375,-0.84375 -0.75749,-0.56994 -1.4394,-1.31421 -2,-2.21875 l -2.6875,-4.46875 c -0.47675,-0.77048 -0.84427,-1.4855 -1.125,-2.15625 -0.28074,-0.67071 -0.48464,-1.44321 -0.625,-2.28125 v 11.4375 h -8.4375 V 79.500004 c 0.33636,-0.0336 0.69789,-0.0896 1.0625,-0.15625 0.30812,-0.0675 0.65252,-0.12244 1.03125,-0.15625 0.37873,-0.0336 0.76038,-0.0312 1.125,-0.0312 z m -97.96875,9.34375 c 3.2815,2e-5 5.61471,0.77 7.03125,2.3125 1.41648,1.54254 2.12499,3.99064 2.125,7.34375 v 9.812496 c -1e-5,0.83803 0.0753,1.76053 0.1875,2.75 0.11205,0.98946 0.27273,1.85599 0.46875,2.59375 -0.39287,0.13412 -0.75439,0.22858 -1.0625,0.3125 -0.30813,0.084 -0.6114,0.16863 -0.90625,0.21875 -0.29487,0.0502 -0.61528,0.077 -0.9375,0.0937 -0.32226,0.0168 -0.66967,0.0312 -1.0625,0.0312 -2.27157,0 -3.60416,-0.76946 -3.96875,-2.3125 -0.47675,0.56994 -1.16812,1.09283 -2.09375,1.5625 -0.92568,0.46965 -2.09805,0.6875 -3.5,0.6875 -0.8696,0 -1.7006,-0.13823 -2.5,-0.40625 -0.79942,-0.26809 -1.50791,-0.69442 -2.125,-1.28125 -0.61711,-0.58681 -1.10413,-1.35679 -1.46875,-2.3125 -0.36461,-0.95569 -0.53125,-2.12476 -0.53125,-3.5 0,-1.94413 0.42578,-3.49948 1.28125,-4.65625 0.85547,-1.15675 1.87366,-2.021276 3.09375,-2.624996 1.22007,-0.60369 2.50854,-0.98894 3.8125,-1.15625 1.30395,-0.16728 2.41766,-0.24998 3.34375,-0.25 v -0.71875 c -1e-5,-0.46965 -0.0784,-0.84001 -0.21875,-1.125 -0.14037,-0.28495 -0.32415,-0.50531 -0.5625,-0.65625 -0.23839,-0.15094 -0.52108,-0.23108 -0.84375,-0.28125 -0.32268,-0.0502 -0.66664,-0.0937 -1.03125,-0.0937 -0.98086,2e-5 -1.95236,0.15061 -2.90625,0.46875 -0.9539,0.31824 -2.00978,0.82877 -3.1875,1.5 -0.53322,-0.7715 -0.95257,-1.54348 -1.21875,-2.28125 -0.26618,-0.73774 -0.40625,-1.28787 -0.40625,-1.65625 0,-0.50342 0.1572,-0.98522 0.4375,-1.4375 0.28031,-0.45226 0.84915,-0.90279 1.71875,-1.40625 0.75745,-0.46964 1.77265,-0.8569 3.0625,-1.125 1.28982,-0.26806 2.62242,-0.40623 3.96875,-0.40625 z m 60.09375,1.3126 c 2.29979,2e-5 4.28904,0.412 6,1.25 0.7566,0.36941 1.38412,0.82396 1.875,1.34375 0.49084,0.51982 0.74999,1.10854 0.75,1.8125 -1e-5,0.60272 -0.17778,1.31774 -0.5,2.15625 -0.32226,0.83856 -0.71078,1.666 -1.1875,2.4375 -0.84222,-0.7715 -1.73104,-1.42019 -2.65625,-1.90625 -0.92524,-0.48601 -1.85904,-0.71872 -2.8125,-0.71875 -1.20597,3e-5 -1.81251,0.41199 -1.8125,1.25 -1e-5,0.53619 0.20774,0.96504 0.65625,1.25 0.44848,0.28498 1.01433,0.5177 1.6875,0.71875 0.67315,0.20108 1.4022,0.43578 2.1875,0.687496 0.78528,0.25172 1.51433,0.6221 2.1875,1.125 0.67316,0.50293 1.23856,1.19072 1.6875,2.0625 0.4489,0.87181 0.68749,1.9983 0.6875,3.40625 -1e-5,2.68292 -0.79032,4.84484 -2.375,6.4375 -1.58471,1.59266 -3.90849,2.375 -6.9375,2.375 -1.73919,0 -3.09491,-0.15001 -4.0625,-0.46875 -0.9676,-0.31874 -1.72064,-0.66437 -2.28125,-1 -0.72922,-0.43589 -1.25095,-0.9177 -1.53125,-1.4375 -0.28031,-0.51979 -0.40625,-1.05506 -0.40625,-1.625 0,-0.87179 0.18076,-1.72446 0.53125,-2.5625 0.35049,-0.83801 0.73901,-1.66447 1.1875,-2.46875 0.33636,0.36838 0.72145,0.71252 1.15625,1.03125 0.4348,0.31874 0.90127,0.60691 1.40625,0.875 0.50498,0.26809 1.0297,0.47407 1.5625,0.625 0.53279,0.15094 1.05751,0.25002 1.5625,0.25 0.72922,2e-5 1.25395,-0.15257 1.5625,-0.4375 0.30854,-0.28496 0.46874,-0.65785 0.46875,-1.09375 -1e-5,-0.50342 -0.25572,-0.88563 -0.71875,-1.1875 -0.46305,-0.30184 -1.01435,-0.57818 -1.6875,-0.8125 -0.67317,-0.23432 -1.4369,-0.51063 -2.25,-0.8125 -0.81311,-0.30185 -1.54559,-0.69895 -2.21875,-1.21875 -0.67316,-0.51979 -1.22489,-1.20758 -1.6875,-2.0625 -0.46262,-0.8549 -0.71876,-1.968506 -0.71875,-3.343746 -1e-5,-1.34041 0.24201,-2.52539 0.71875,-3.53125 0.47674,-1.00581 1.10727,-1.81489 1.90625,-2.46875 0.79898,-0.65382 1.74346,-1.14999 2.78125,-1.46875 1.03776,-0.31871 2.13092,-0.46873 3.28125,-0.46875 z m 63,0.5625 c 0.67358,3e-5 1.33795,0.0679 1.96875,0.21875 0.63079,0.15094 1.1795,0.42727 1.65625,0.8125 0.47672,0.38527 0.86181,0.90616 1.15625,1.59375 0.29443,0.68764 0.43749,1.58393 0.4375,2.65625 V 113.4375 c -10e-6,0.73776 -0.0378,1.66026 -0.0937,2.75 -0.056,1.08974 -0.17901,2.06569 -0.375,2.9375 -0.30899,1.34144 -0.76135,2.46995 -1.40625,3.375 -0.64493,0.90505 -1.3881,1.63392 -2.1875,2.1875 -0.79942,0.55355 -1.59315,0.95318 -2.40625,1.1875 -0.81311,0.23431 -1.5049,0.34373 -2.09375,0.34375 -1.20596,-2e-5 -2.09521,-0.29072 -2.65625,-0.84375 -0.56103,-0.55307 -0.96025,-1.36413 -1.15625,-2.4375 -0.0847,-0.4359 -0.14555,-0.88898 -0.1875,-1.375 -0.0419,-0.48604 -0.0684,-1.13074 -0.125,-1.96875 0.89784,-0.1003 1.62646,-0.32315 2.1875,-0.625 0.56104,-0.30185 0.9727,-0.68658 1.28125,-1.15625 0.30854,-0.46967 0.54412,-1.00492 0.65625,-1.625 0.11218,-0.62008 0.15625,-1.29349 0.15625,-2.03125 V 90.718754 c 0.33636,-0.0338 0.69788,-0.0898 1.0625,-0.15625 0.30812,-0.0675 0.6525,-0.12308 1.03125,-0.15625 0.37872,-0.0332 0.72913,-0.0312 1.09375,-0.0312 z m -182.75,5.375 c -0.76834,0.11003 -1.31832,0.61992 -1.625,1.5 -0.35049,1.00586 -0.50001,2.38143 -0.5,4.124996 -1e-5,0.80428 0.0411,1.53115 0.125,2.21875 0.0839,0.68762 0.22693,1.2927 0.4375,1.8125 0.21054,0.5198 0.47612,0.94815 0.8125,1.25 0.33635,0.30185 0.74501,0.4375 1.25,0.4375 0.33635,0 0.61606,-0.0117 0.8125,-0.0625 0.19642,-0.0506 0.3215,-0.0912 0.40625,-0.125 V 96.093754 c -0.16863,-0.13395 -0.3584,-0.2311 -0.625,-0.28125 -0.26662,-0.0502 -0.52577,-0.0625 -0.75,-0.0625 -0.11918,0 -0.23399,-0.0157 -0.34375,0 z m 141.28125,1.5 c -0.95348,2e-5 -1.61827,0.49419 -1.96875,1.5 -0.3505,1.00586 -0.53126,2.381426 -0.53125,4.124996 -1e-5,0.80428 0.0411,1.5624 0.125,2.25 0.0839,0.68762 0.22693,1.2927 0.4375,1.8125 0.21054,0.5198 0.50737,0.9169 0.84375,1.21875 0.33636,0.30185 0.74501,0.46875 1.25,0.46875 0.33635,0 0.61605,-0.0429 0.8125,-0.0937 0.19641,-0.0506 0.3215,-0.0912 0.40625,-0.125 V 97.593804 c -0.16863,-0.13395 -0.38966,-0.2311 -0.65625,-0.28125 -0.26663,-0.0502 -0.49452,-0.0625 -0.71875,-0.0625 z m -80.3125,4.937496 c -0.53238,0.0676 -1.05411,0.17848 -1.53125,0.3125 -0.47718,0.13412 -0.89952,0.31132 -1.25,0.5625 -0.3505,0.25121 -0.60238,0.59737 -0.8125,1 -0.21013,0.40266 -0.34376,0.92605 -0.34375,1.5625 -1e-5,0.77152 0.18075,1.36224 0.53125,1.78125 0.35048,0.41901 0.85164,0.625 1.46875,0.625 0.50498,0 0.95131,-0.13823 1.34375,-0.40625 0.39241,-0.26807 0.59374,-0.68154 0.59375,-1.21875 z m 56.96875,76.6875 c 1.14946,3e-5 2.13808,0.42586 2.9375,1.28125 0.79939,0.85545 1.18749,1.9958 1.1875,3.4375 -1e-5,1.44176 -0.38811,2.5995 -1.1875,3.4375 -0.79942,0.83806 -1.78804,1.25003 -2.9375,1.25 -1.15033,3e-5 -2.10728,-0.41194 -2.90625,-1.25 -0.79898,-0.838 -1.21875,-1.99574 -1.21875,-3.4375 0,-1.4417 0.41977,-2.58205 1.21875,-3.4375 0.79897,-0.85539 1.75592,-1.28122 2.90625,-1.28125 z m -89.1875,0.46875 c 0.56145,3e-5 1.18168,0.041 1.8125,0.125 0.63079,0.084 1.22363,0.20723 1.8125,0.375 1.00994,0.30188 1.89576,0.74008 2.625,1.34375 0.72921,0.60375 1.09374,1.48515 1.09375,2.625 -1e-5,0.50243 -0.19447,1.17636 -0.53125,2.03125 -0.33681,0.85493 -0.7489,1.71946 -1.28125,2.625 -0.44851,-0.30184 -1.01736,-0.58799 -1.71875,-0.90625 -0.70143,-0.31819 -1.50242,-0.49997 -2.34375,-0.5 -0.72924,3e-5 -1.33921,0.23526 -1.84375,0.6875 -0.50456,0.45229 -0.75,1.18318 -0.75,2.15625 v 1.1875 h 6.21875 v 7.5 h -6.21875 v 16.8125 h -8.375 v -24.0625 c 0,-0.43587 0.0174,-1.04148 0.0312,-1.8125 0.0137,-0.77099 0.0374,-1.37407 0.0937,-1.84375 0.36461,-2.71563 1.31855,-4.79336 2.875,-6.21875 1.55645,-1.42533 3.72345,-2.12497 6.5,-2.125 z m 106.5,0 c 0.56145,3e-5 1.15043,0.041 1.78125,0.125 0.63078,0.084 1.25487,0.20723 1.84375,0.375 1.00994,0.30188 1.86451,0.74008 2.59375,1.34375 0.72921,0.60375 1.09372,1.48515 1.09375,2.625 -3e-5,0.50243 -0.16323,1.17636 -0.5,2.03125 -0.33682,0.85493 -0.78016,1.71946 -1.3125,2.625 -0.44851,-0.30184 -1.01736,-0.58799 -1.71875,-0.90625 -0.70143,-0.31819 -1.47116,-0.49997 -2.3125,-0.5 -0.72924,3e-5 -1.33921,0.23526 -1.84375,0.6875 -0.50456,0.45229 -0.75001,1.18318 -0.75,2.15625 v 1.1875 h 6.21875 v 7.5 h -6.21875 v 16.8125 h -8.375 v -24.0625 c 0,-0.43587 -0.0138,-1.04148 0,-1.8125 0.0137,-0.77099 0.0684,-1.37407 0.125,-1.84375 0.36462,-2.71563 1.31855,-4.79336 2.875,-6.21875 1.55644,-1.42533 3.72345,-2.12497 6.5,-2.125 z m -76.96875,0.375 c 0.67359,5e-5 1.3067,0.0992 1.9375,0.25 0.6308,0.15094 1.21076,0.39553 1.6875,0.78125 0.47674,0.3858 0.86181,0.93741 1.15625,1.625 0.29441,0.68764 0.43749,1.55268 0.4375,2.625 v 30.1875 c -1.14949,0.4359 -2.19592,0.65625 -3.09375,0.65625 -1.28985,0 -2.2849,-0.19362 -3,-0.5625 -0.71511,-0.36886 -1.24327,-0.8338 -1.59375,-1.4375 -0.3505,-0.6037 -0.55482,-1.30586 -0.625,-2.09375 -0.0702,-0.78788 -0.0937,-1.62821 -0.0937,-2.5 v -29.15625 c 0.33636,-0.0336 0.66663,-0.0896 1.03125,-0.15625 0.30812,-0.0675 0.65252,-0.12244 1.03125,-0.15625 0.37873,-0.0336 0.76038,-0.0625 1.125,-0.0625 z m 11.75,0 c 0.67358,5e-5 1.3067,0.0992 1.9375,0.25 0.63079,0.15094 1.21075,0.39553 1.6875,0.78125 0.47672,0.3858 0.86181,0.93741 1.15625,1.625 0.29443,0.68764 0.43749,1.55268 0.4375,2.625 v 16.21875 c 0.14036,-0.73672 0.3477,-1.46662 0.65625,-2.1875 0.30854,-0.72085 0.71075,-1.45122 1.1875,-2.15625 l 2.28125,-3.46875 c 0.53235,-0.80423 1.10464,-1.5069 1.75,-2.09375 0.64534,-0.5868 1.535,-0.87498 2.65625,-0.875 0.64534,2e-5 1.28913,0.12588 1.90625,0.34375 0.61708,0.21797 1.14824,0.45069 1.625,0.71875 0.53234,0.30188 1.05449,0.63064 1.53125,1 l -5.78125,9.65625 6.8125,12.4375 c -1.85132,0.90454 -3.55144,1.34375 -5.09375,1.34375 -1.3181,0 -2.3363,-0.27381 -3.09375,-0.84375 -0.75749,-0.56994 -1.4394,-1.31421 -2,-2.21875 l -2.6875,-4.46875 c -0.47674,-0.77048 -0.84428,-1.4855 -1.125,-2.15625 -0.28074,-0.67071 -0.48464,-1.44321 -0.625,-2.28125 v 11.4375 h -8.4375 v -35.3125 c 0.33636,-0.0336 0.69788,-0.0896 1.0625,-0.15625 0.30812,-0.0675 0.6525,-0.12244 1.03125,-0.15625 0.37872,-0.0336 0.76038,-0.0625 1.125,-0.0625 z m -26.15625,10.71875 c 2.29979,2e-5 4.32029,0.412 6.03125,1.25 0.7566,0.36941 1.38412,0.82396 1.875,1.34375 0.49084,0.51982 0.71874,1.13979 0.71875,1.84375 -1e-5,0.60272 -0.14653,1.31774 -0.46875,2.15625 -0.32226,0.83856 -0.74203,1.63475 -1.21875,2.40625 -0.84222,-0.7715 -1.73104,-1.38894 -2.65625,-1.875 -0.92524,-0.48601 -1.85904,-0.71873 -2.8125,-0.71875 -1.20597,2e-5 -1.81251,0.41199 -1.8125,1.25 -1e-5,0.53619 0.23899,0.93379 0.6875,1.21875 0.44848,0.28498 1.01433,0.54895 1.6875,0.75 0.67315,0.20108 1.4022,0.40455 2.1875,0.65625 0.78528,0.25173 1.51433,0.65335 2.1875,1.15625 0.67316,0.50293 1.23856,1.19072 1.6875,2.0625 0.4489,0.87181 0.65624,1.9983 0.65625,3.40625 -1e-5,2.68292 -0.79032,4.81359 -2.375,6.40625 -1.58471,1.59266 -3.87724,2.40625 -6.90625,2.40625 -1.73919,0 -3.09491,-0.18126 -4.0625,-0.5 -0.9676,-0.31874 -1.75189,-0.63312 -2.3125,-0.96875 -0.72922,-0.43589 -1.2197,-0.9177 -1.5,-1.4375 -0.28031,-0.51979 -0.4375,-1.05506 -0.4375,-1.625 0,-0.87179 0.18076,-1.72446 0.53125,-2.5625 0.35049,-0.83801 0.77026,-1.66447 1.21875,-2.46875 0.33636,0.36838 0.72145,0.71252 1.15625,1.03125 0.4348,0.31874 0.90127,0.60691 1.40625,0.875 0.50498,0.26809 1.0297,0.47407 1.5625,0.625 0.53279,0.15094 1.02626,0.21875 1.53125,0.21875 0.72922,0 1.25393,-0.12132 1.5625,-0.40625 0.30854,-0.28496 0.46874,-0.65785 0.46875,-1.09375 -1e-5,-0.50342 -0.22447,-0.91688 -0.6875,-1.21875 -0.46305,-0.30184 -1.0456,-0.54693 -1.71875,-0.78125 -0.67317,-0.23432 -1.40565,-0.51063 -2.21875,-0.8125 -0.81311,-0.30185 -1.54559,-0.69895 -2.21875,-1.21875 -0.67316,-0.51979 -1.25614,-1.20758 -1.71875,-2.0625 -0.46262,-0.8549 -0.68751,-1.96851 -0.6875,-3.34375 -1e-5,-1.34041 0.24201,-2.52539 0.71875,-3.53125 0.47674,-1.00581 1.10727,-1.84614 1.90625,-2.5 0.79898,-0.65382 1.71221,-1.11874 2.75,-1.4375 1.03776,-0.31871 2.13092,-0.49998 3.28125,-0.5 z m 57.59375,0 c 3.2815,2e-5 5.64598,0.77 7.0625,2.3125 1.4165,1.54254 2.12499,3.99064 2.125,7.34375 v 9.8125 c -1e-5,0.83803 0.0441,1.76053 0.15625,2.75 0.11205,0.98946 0.27273,1.85599 0.46875,2.59375 -0.39287,0.13395 -0.75439,0.22858 -1.0625,0.3125 -0.30815,0.084 -0.61142,0.16863 -0.90625,0.21875 -0.29487,0.0502 -0.58403,0.077 -0.90625,0.0937 -0.32226,0.0168 -0.7009,0.0312 -1.09375,0.0312 -2.27156,0 -3.57291,-0.76946 -3.9375,-2.3125 -0.47675,0.56994 -1.1681,1.0616 -2.09375,1.53125 -0.92566,0.46967 -2.09805,0.71875 -3.5,0.71875 -0.8696,0 -1.7006,-0.13823 -2.5,-0.40625 -0.7994,-0.26809 -1.50791,-0.69442 -2.125,-1.28125 -0.61711,-0.58683 -1.10414,-1.35681 -1.46875,-2.3125 -0.36462,-0.95569 -0.5625,-2.12476 -0.5625,-3.5 0,-1.94413 0.42578,-3.49948 1.28125,-4.65625 0.85547,-1.15675 1.90491,-2.02128 3.125,-2.625 1.22007,-0.60369 2.47729,-0.98894 3.78125,-1.15625 1.30395,-0.16728 2.41766,-0.24998 3.34375,-0.25 v -0.71875 c -1e-5,-0.46965 -0.0784,-0.84002 -0.21875,-1.125 -0.14037,-0.28496 -0.32415,-0.50531 -0.5625,-0.65625 -0.23839,-0.15094 -0.52108,-0.26233 -0.84375,-0.3125 -0.32268,-0.0502 -0.66664,-0.0625 -1.03125,-0.0625 -0.98086,2e-5 -1.95236,0.15061 -2.90625,0.46875 -0.9539,0.31824 -2.00978,0.82877 -3.1875,1.5 -0.53323,-0.7715 -0.92132,-1.54348 -1.1875,-2.28125 -0.26618,-0.73754 -0.40625,-1.28777 -0.40625,-1.65615 0,-0.50342 0.12594,-0.98521 0.40625,-1.4375 0.28031,-0.45224 0.84915,-0.90279 1.71875,-1.40625 0.75747,-0.46964 1.8039,-0.8569 3.09375,-1.125 1.28983,-0.26806 2.59117,-0.40623 3.9375,-0.40625 z m 15.71875,0.5 c 0.67358,3e-5 1.33795,0.0992 1.96875,0.25 0.63079,0.15094 1.1795,0.39602 1.65625,0.78125 0.47672,0.38527 0.86181,0.93741 1.15625,1.625 0.29443,0.68762 0.43749,1.55266 0.4375,2.625 v 17.8125 c -1e-5,0.73776 -0.0378,1.66026 -0.0937,2.75 -0.056,1.08973 -0.17901,2.06569 -0.375,2.9375 -0.30899,1.34144 -0.7926,2.46995 -1.4375,3.375 -0.64493,0.90505 -1.35685,1.63392 -2.15625,2.1875 -0.79942,0.55355 -1.59315,0.95318 -2.40625,1.1875 -0.81311,0.23431 -1.53615,0.34373 -2.125,0.34375 -1.20596,-2e-5 -2.06396,-0.29072 -2.625,-0.84375 -0.56104,-0.55307 -0.96026,-1.36415 -1.15625,-2.4375 -0.0847,-0.4359 -0.14556,-0.88898 -0.1875,-1.375 -0.0419,-0.48604 -0.0998,-1.16199 -0.15625,-2 0.89784,-0.1003 1.62646,-0.2919 2.1875,-0.59375 0.56104,-0.30185 1.00395,-0.68658 1.3125,-1.15625 0.30854,-0.46967 0.51288,-1.00492 0.625,-1.625 0.11218,-0.62008 0.1875,-1.29349 0.1875,-2.03125 v -23.4375 c 0.33638,-0.0338 0.66663,-0.0898 1.03125,-0.15625 0.30812,-0.0675 0.6525,-0.12308 1.03125,-0.15625 0.37872,-0.0332 0.76038,-0.0625 1.125,-0.0625 z m -14.40625,13.1875 c -0.53238,0.0676 -1.02285,0.17846 -1.5,0.3125 -0.47717,0.13412 -0.89952,0.31132 -1.25,0.5625 -0.3505,0.25121 -0.63364,0.59737 -0.84375,1 -0.21013,0.40266 -0.31251,0.8948 -0.3125,1.53125 -1e-5,0.77152 0.18075,1.39349 0.53125,1.8125 0.35048,0.41901 0.82039,0.625 1.4375,0.625 0.50496,0 0.95131,-0.13823 1.34375,-0.40625 0.39241,-0.26807 0.59374,-0.68154 0.59375,-1.21875 z m -66.34375,25.03125 c 1.14946,3e-5 2.13808,0.45711 2.9375,1.3125 0.7994,0.85545 1.18749,1.9958 1.1875,3.4375 -1e-5,1.44176 -0.3881,2.56825 -1.1875,3.40625 -0.79942,0.83806 -1.78804,1.25003 -2.9375,1.25 -1.15033,3e-5 -2.13852,-0.41194 -2.9375,-1.25 -0.79898,-0.838 -1.1875,-1.96449 -1.1875,-3.40625 0,-1.4417 0.38852,-2.58205 1.1875,-3.4375 0.79898,-0.85539 1.78717,-1.31247 2.9375,-1.3125 z m 91.875,0 c 1.14946,3e-5 2.10683,0.45711 2.90625,1.3125 0.7994,0.85545 1.18749,1.9958 1.1875,3.4375 -1e-5,1.44176 -0.3881,2.56825 -1.1875,3.40625 -0.79942,0.83806 -1.75679,1.25003 -2.90625,1.25 -1.15034,3e-5 -2.13852,-0.41194 -2.9375,-1.25 -0.64144,-0.67277 -0.99853,-1.53182 -1.125,-2.59375 -0.0775,0.40337 -0.22146,0.85783 -0.4375,1.40625 -0.33681,0.85493 -0.74891,1.75071 -1.28125,2.65625 -0.44851,-0.30184 -1.04861,-0.61924 -1.75,-0.9375 -0.70143,-0.31819 -1.47116,-0.46872 -2.3125,-0.46875 -0.72924,3e-5 -1.33921,0.23527 -1.84375,0.6875 -0.50456,0.45231 -0.75001,1.15193 -0.75,2.125 v 1.21875 h 6.21875 v 7.46875 h -6.21875 v 16.8125 h -8.375 v -24.03125 c 0,-0.43587 0.0174,-1.04148 0.0312,-1.8125 0.0137,-0.77099 0.0372,-1.40532 0.0937,-1.875 0.36461,-2.71563 1.31855,-4.79336 2.875,-6.21875 1.55645,-1.42533 3.72345,-2.12497 6.5,-2.125 0.56145,3e-5 1.15043,0.0412 1.78125,0.125 0.63078,0.084 1.25487,0.20722 1.84375,0.375 1.00994,0.30188 1.86451,0.77133 2.59375,1.375 0.52938,0.4383 0.85492,0.99792 1,1.71875 0.11089,-1.12027 0.49032,-2.03699 1.15625,-2.75 0.79898,-0.85539 1.78716,-1.31247 2.9375,-1.3125 z m -4.09375,4.0625 c -0.0222,0.22381 -0.0312,0.44744 -0.0312,0.6875 0,0.28426 0.0314,0.55171 0.0625,0.8125 0.0433,-0.22541 0.0625,-0.44488 0.0625,-0.625 -1e-5,-0.31236 -0.039,-0.6029 -0.0937,-0.875 z m 40.375,-3.59375 c 0.56146,3e-5 1.15045,0.0412 1.78125,0.125 0.63079,0.084 1.22363,0.20722 1.8125,0.375 1.00994,0.30188 1.89576,0.77133 2.625,1.375 0.72921,0.60375 1.09374,1.4539 1.09375,2.59375 -10e-6,0.50243 -0.16322,1.17636 -0.5,2.03125 -0.33681,0.85493 -0.78015,1.75071 -1.3125,2.65625 -0.44851,-0.30184 -1.01736,-0.61924 -1.71875,-0.9375 -0.70143,-0.31819 -1.47117,-0.46872 -2.3125,-0.46875 -0.72924,3e-5 -1.33921,0.23527 -1.84375,0.6875 -0.50456,0.45231 -0.78125,1.15193 -0.78125,2.125 v 1.21875 h 6.25 v 7.46875 h -6.25 v 16.8125 h -8.375 v -24.03125 c 0,-0.43587 0.0174,-1.04148 0.0312,-1.8125 0.0137,-0.77099 0.0372,-1.40532 0.0937,-1.875 0.36461,-2.71563 1.3498,-4.79336 2.90625,-6.21875 1.55645,-1.42533 3.72345,-2.12497 6.5,-2.125 z m -159.65625,0.40625 c 0.67273,5e-5 1.33751,0.0679 1.96875,0.21875 0.63121,0.15094 1.17949,0.42678 1.65625,0.8125 0.47671,0.3858 0.8618,0.90618 1.15625,1.59375 0.29441,0.68765 0.43747,1.58393 0.4375,2.65625 v 30.375 h -6.3125 c -0.42112,0 -0.78864,-0.10896 -1.125,-0.34375 -0.33638,-0.23483 -0.50001,-0.76075 -0.5,-1.53125 -0.39287,0.60268 -1.01953,1.16971 -1.875,1.65625 -0.85548,0.48654 -1.92893,0.71875 -3.21875,0.71875 -0.95348,0 -1.9181,-0.19362 -2.84375,-0.5625 -0.92566,-0.36888 -1.75709,-1.01556 -2.5,-1.9375 -0.74293,-0.92193 -1.34947,-2.15733 -1.8125,-3.75 -0.46305,-1.59264 -0.6875,-3.61642 -0.6875,-6.03125 0,-2.41379 0.22145,-4.44841 0.65625,-6.125 0.43478,-1.67654 1.02078,-3.02339 1.75,-4.0625 0.72922,-1.03907 1.57777,-1.81157 2.53125,-2.28125 0.95346,-0.46965 1.93054,-0.68747 2.96875,-0.6875 0.67273,3e-5 1.27969,0.0822 1.8125,0.25 0.53279,0.16785 0.99625,0.34458 1.375,0.5625 0.37872,0.21797 0.69911,0.43833 0.9375,0.65625 0.23835,0.21798 0.38486,0.36851 0.46875,0.46875 V 230.375 c 0.3372,-0.0338 0.69872,-0.0896 1.0625,-0.15625 0.30896,-0.0675 0.63537,-0.12244 1,-0.15625 0.36459,-0.0337 0.72913,-0.0312 1.09375,-0.0312 z M 136.83212,240.75 c 2.29979,3e-5 4.32029,0.412 6.03125,1.25 0.75659,0.36941 1.38412,0.82396 1.875,1.34375 0.49084,0.51982 0.71874,1.10854 0.71875,1.8125 -1e-5,0.6027 -0.14653,1.31774 -0.46875,2.15625 -0.32226,0.83856 -0.74203,1.666 -1.21875,2.4375 -0.84222,-0.7715 -1.73104,-1.42019 -2.65625,-1.90625 -0.92524,-0.48601 -1.85904,-0.71873 -2.8125,-0.71875 -1.20597,2e-5 -1.81251,0.41199 -1.8125,1.25 -1e-5,0.53619 0.23901,0.96504 0.6875,1.25 0.44849,0.28498 1.01433,0.51769 1.6875,0.71875 0.67315,0.20108 1.4022,0.4358 2.1875,0.6875 0.78528,0.25173 1.51433,0.6221 2.1875,1.125 0.67315,0.50293 1.23856,1.19072 1.6875,2.0625 0.4489,0.87181 0.65624,1.9983 0.65625,3.40625 -1e-5,2.68292 -0.79032,4.84484 -2.375,6.4375 -1.58471,1.59266 -3.87724,2.375 -6.90625,2.375 -1.73919,0 -3.09491,-0.15001 -4.0625,-0.46875 -0.9676,-0.31874 -1.75189,-0.66437 -2.3125,-1 -0.72922,-0.43589 -1.2197,-0.88645 -1.5,-1.40625 -0.28031,-0.5198 -0.4375,-1.08631 -0.4375,-1.65625 0,-0.87179 0.18076,-1.72446 0.53125,-2.5625 0.35049,-0.83801 0.77026,-1.66447 1.21875,-2.46875 0.33636,0.36838 0.72145,0.71251 1.15625,1.03125 0.4348,0.31874 0.90127,0.60691 1.40625,0.875 0.50498,0.26809 1.0297,0.50532 1.5625,0.65625 0.53279,0.15094 1.02626,0.21875 1.53125,0.21875 0.72922,0 1.25393,-0.15257 1.5625,-0.4375 0.30854,-0.28496 0.46874,-0.6266 0.46875,-1.0625 -1e-5,-0.50342 -0.22447,-0.91688 -0.6875,-1.21875 -0.46305,-0.30184 -1.0456,-0.57818 -1.71875,-0.8125 -0.67317,-0.23432 -1.40565,-0.51065 -2.21875,-0.8125 -0.81311,-0.30185 -1.54559,-0.69895 -2.21875,-1.21875 -0.67316,-0.51979 -1.25614,-1.20758 -1.71875,-2.0625 -0.46262,-0.8549 -0.6875,-1.96851 -0.6875,-3.34375 0,-1.34041 0.24201,-2.52539 0.71875,-3.53125 0.47674,-1.00581 1.10727,-1.81489 1.90625,-2.46875 0.79898,-0.65382 1.71221,-1.14999 2.75,-1.46875 1.03776,-0.31871 2.13091,-0.46872 3.28125,-0.46875 z m 32.65625,0 c 1.71092,3e-5 3.16903,0.30256 4.375,0.90625 1.20595,0.60372 2.19413,1.40044 2.9375,2.40625 0.74334,1.00586 1.28861,2.19032 1.625,3.53125 0.33635,1.34096 0.49999,2.74327 0.5,4.21875 v 0.65625 c -1e-5,0.28498 -0.017,0.6044 -0.0312,0.90625 -0.0141,0.30187 -0.0177,0.57568 -0.0312,0.84375 -0.0137,0.2681 -0.0342,0.45971 -0.0625,0.59375 h -11.25 c 0.14036,1.27393 0.54257,2.36133 1.1875,3.25 0.6449,0.88868 1.69478,1.34377 3.125,1.34375 1.12207,2e-5 2.05544,-0.22288 2.8125,-0.625 0.75702,-0.40212 1.52377,-0.9225 2.28125,-1.59375 0.36459,0.67125 0.72912,1.44071 1.09375,2.3125 0.36459,0.87179 0.53124,1.64229 0.53125,2.3125 -1e-5,0.56994 -0.12252,1.12209 -0.375,1.625 -0.25252,0.50293 -0.69927,0.96783 -1.34375,1.4375 -0.61712,0.43589 -1.44812,0.82315 -2.5,1.125 -1.05192,0.30185 -2.36694,0.4375 -3.9375,0.4375 -1.14949,0 -2.369,-0.16437 -3.6875,-0.5 -1.31852,-0.33562 -2.56586,-0.99667 -3.6875,-1.96875 -1.12167,-0.97206 -2.0379,-2.33328 -2.78125,-4.09375 -0.74335,-1.76047 -1.125,-4.05654 -1.125,-6.90625 0,-2.11295 0.30327,-3.95798 0.90625,-5.5 0.60298,-1.54199 1.4074,-2.80664 2.375,-3.8125 0.96759,-1.00581 2.06417,-1.74907 3.3125,-2.21875 1.24833,-0.46965 2.48839,-0.68747 3.75,-0.6875 z m 22.21875,0 c 1.93517,3e-5 3.55992,0.32929 4.90625,1 1.34632,0.67075 2.43988,1.5789 3.28125,2.71875 0.84133,1.1399 1.46499,2.47439 1.84375,4 0.37871,1.52565 0.56247,3.13395 0.5625,4.84375 -3e-5,1.70984 -0.20092,3.37611 -0.59375,4.96875 -0.39289,1.59267 -1.01998,2.98061 -1.875,4.1875 -0.85506,1.20691 -1.95207,2.15362 -3.3125,2.875 -1.36046,0.72137 -3.03657,1.09375 -5,1.09375 -1.9352,0 -3.56036,-0.35801 -4.90625,-1.0625 -1.34591,-0.70449 -2.45703,-1.65372 -3.3125,-2.84375 -0.85547,-1.19002 -1.48215,-2.56559 -1.875,-4.125 -0.39286,-1.55939 -0.59375,-3.1939 -0.59375,-4.9375 0,-1.74357 0.23857,-3.40984 0.6875,-4.96875 0.44891,-1.55888 1.11972,-2.89135 2.03125,-4.03125 0.91153,-1.13985 2.06035,-2.048 3.40625,-2.71875 1.3459,-0.67071 2.92692,-0.99997 4.75,-1 z m 25.96875,0 c 0.42109,3e-5 0.84343,0.0244 1.25,0.125 0.40654,0.10079 0.75736,0.28208 1.09375,0.5 0.33635,0.21797 0.63318,0.50614 0.84375,0.875 0.21052,0.36889 0.31249,0.80759 0.3125,1.34375 -1e-5,0.53619 -0.0753,1.14432 -0.1875,1.78125 -0.11218,0.63698 -0.2552,1.26679 -0.4375,1.9375 -0.18232,0.67075 -0.3691,1.3318 -0.59375,1.96875 -0.22469,0.63698 -0.46328,1.21533 -0.6875,1.71875 -0.58888,-0.56992 -1.1406,-0.99626 -1.6875,-1.28125 -0.54693,-0.28495 -1.16803,-0.43748 -1.8125,-0.4375 -0.72924,2e-5 -1.2634,0.22036 -1.65625,0.65625 -0.39287,0.4359 -0.59376,1.01477 -0.59375,1.71875 v 14.03125 h -8.46875 v -24.03125 c 0.25249,-0.0675 0.53862,-0.15229 0.875,-0.21875 0.30812,-0.0675 0.66964,-0.12308 1.0625,-0.15625 0.39285,-0.0332 0.83876,-0.0312 1.34375,-0.0312 2.52404,3e-5 4.10164,0.82398 4.71875,2.5 0.13951,-0.30184 0.36139,-0.61673 0.65625,-0.96875 0.29485,-0.35197 0.63881,-0.69812 1.03125,-1 0.39241,-0.30182 0.83876,-0.54892 1.34375,-0.75 0.50496,-0.20105 1.03313,-0.28122 1.59375,-0.28125 z m 41.75,0 c 2.29979,3e-5 4.3203,0.412 6.03125,1.25 0.7566,0.36941 1.35287,0.82396 1.84375,1.34375 0.49084,0.51982 0.74997,1.10854 0.75,1.8125 -3e-5,0.6027 -0.14651,1.31774 -0.46875,2.15625 -0.32226,0.83856 -0.74204,1.666 -1.21875,2.4375 -0.84222,-0.7715 -1.73105,-1.42019 -2.65625,-1.90625 -0.92524,-0.48601 -1.85903,-0.71873 -2.8125,-0.71875 -1.20596,2e-5 -1.8125,0.41199 -1.8125,1.25 0,0.53619 0.23901,0.96504 0.6875,1.25 0.44848,0.28498 1.01433,0.51769 1.6875,0.71875 0.67316,0.20108 1.4022,0.4358 2.1875,0.6875 0.78526,0.25173 1.51431,0.6221 2.1875,1.125 0.67315,0.50293 1.23856,1.19072 1.6875,2.0625 0.4489,0.87181 0.65622,1.9983 0.65625,3.40625 -3e-5,2.68292 -0.79032,4.84484 -2.375,6.4375 -1.58471,1.59266 -3.87724,2.375 -6.90625,2.375 -1.73919,0 -3.09491,-0.15001 -4.0625,-0.46875 -0.9676,-0.31874 -1.75188,-0.66437 -2.3125,-1 -0.72922,-0.43589 -1.21969,-0.88645 -1.5,-1.40625 -0.2803,-0.5198 -0.4375,-1.08631 -0.4375,-1.65625 0,-0.87179 0.18076,-1.72446 0.53125,-2.5625 0.35049,-0.83801 0.77026,-1.66447 1.21875,-2.46875 0.33636,0.36838 0.72145,0.71251 1.15625,1.03125 0.43478,0.31874 0.90126,0.60691 1.40625,0.875 0.50498,0.26809 0.99845,0.50532 1.53125,0.65625 0.53279,0.15094 1.05751,0.21875 1.5625,0.21875 0.72921,0 1.25393,-0.15257 1.5625,-0.4375 0.30854,-0.28496 0.46874,-0.6266 0.46875,-1.0625 -10e-6,-0.50342 -0.22446,-0.91688 -0.6875,-1.21875 -0.46304,-0.30184 -1.04559,-0.57818 -1.71875,-0.8125 -0.67317,-0.23432 -1.40565,-0.51065 -2.21875,-0.8125 -0.8131,-0.30185 -1.57684,-0.69895 -2.25,-1.21875 -0.67317,-0.51979 -1.22489,-1.20758 -1.6875,-2.0625 -0.46261,-0.8549 -0.6875,-1.96851 -0.6875,-3.34375 0,-1.34041 0.242,-2.52539 0.71875,-3.53125 0.47672,-1.00581 1.10727,-1.81489 1.90625,-2.46875 0.79897,-0.65382 1.71222,-1.14999 2.75,-1.46875 1.03778,-0.31871 2.13091,-0.46872 3.28125,-0.46875 z m -108.1875,0.5 c 0.67359,3e-5 1.3067,0.0679 1.9375,0.21875 0.63079,0.15094 1.21076,0.42727 1.6875,0.8125 0.47674,0.38527 0.86181,0.90616 1.15625,1.59375 0.29441,0.68762 0.4375,1.58391 0.4375,2.65625 v 17.78125 c 0,0.73776 -0.0378,1.66026 -0.0937,2.75 -0.056,1.08973 -0.17901,2.06569 -0.375,2.9375 -0.30899,1.34144 -0.79258,2.46995 -1.4375,3.375 -0.64493,0.90505 -1.35685,1.63392 -2.15625,2.1875 -0.79942,0.55355 -1.6244,0.95318 -2.4375,1.1875 -0.8131,0.23431 -1.50488,0.34373 -2.09375,0.34375 -1.20596,-2e-5 -2.09521,-0.25947 -2.65625,-0.8125 -0.56104,-0.55307 -0.929,-1.36415 -1.125,-2.4375 -0.0847,-0.4359 -0.14556,-0.92023 -0.1875,-1.40625 -0.042,-0.48604 -0.0998,-1.13074 -0.15625,-1.96875 0.89784,-0.1003 1.62647,-0.2919 2.1875,-0.59375 0.56104,-0.30185 1.00395,-0.71783 1.3125,-1.1875 0.30855,-0.46967 0.51288,-1.00492 0.625,-1.625 0.11218,-0.62008 0.15624,-1.29349 0.15625,-2.03125 v -23.4375 c 0.33636,-0.0338 0.69789,-0.0898 1.0625,-0.15625 0.30812,-0.0675 0.65252,-0.12308 1.03125,-0.15625 0.37873,-0.0332 0.76038,-0.0312 1.125,-0.0312 z m 91.84375,0 c 0.67359,3e-5 1.33795,0.0679 1.96875,0.21875 0.63079,0.15094 1.1795,0.42727 1.65625,0.8125 0.47672,0.38527 0.86181,0.90616 1.15625,1.59375 0.29443,0.68762 0.43749,1.58391 0.4375,2.65625 v 17.78125 c -1e-5,0.73776 -0.006,1.66026 -0.0625,2.75 -0.056,1.08973 -0.21026,2.06569 -0.40625,2.9375 -0.30899,1.34144 -0.76135,2.46995 -1.40625,3.375 -0.64493,0.90505 -1.3881,1.63392 -2.1875,2.1875 -0.79942,0.55355 -1.59315,0.95318 -2.40625,1.1875 -0.81311,0.23431 -1.5049,0.34373 -2.09375,0.34375 -1.20596,-2e-5 -2.09521,-0.25947 -2.65625,-0.8125 -0.56103,-0.55307 -0.96025,-1.36415 -1.15625,-2.4375 -0.0847,-0.4359 -0.14555,-0.92023 -0.1875,-1.40625 -0.0419,-0.48604 -0.0684,-1.13074 -0.125,-1.96875 0.89784,-0.1003 1.62646,-0.2919 2.1875,-0.59375 0.56104,-0.30185 0.97271,-0.71783 1.28125,-1.1875 0.30855,-0.46967 0.54412,-1.00492 0.65625,-1.625 0.11218,-0.62008 0.15625,-1.29349 0.15625,-2.03125 v -23.4375 c 0.33636,-0.0338 0.69788,-0.0898 1.0625,-0.15625 0.30812,-0.0675 0.65252,-0.12308 1.03125,-0.15625 0.37873,-0.0332 0.72914,-0.0312 1.09375,-0.0312 z m -73.65625,5.78125 c -1.31896,2e-5 -2.00001,1.21122 -2,3.625 h 4.0625 c -1e-5,-1.37419 -0.17776,-2.32395 -0.5,-2.84375 -0.32226,-0.51979 -0.83329,-0.78123 -1.5625,-0.78125 z m -53.53125,1.09375 c -0.95348,2e-5 -1.58702,0.52544 -1.9375,1.53125 -0.3505,1.00586 -0.53126,2.35018 -0.53125,4.09375 v 0.0312 c -1e-5,0.80428 0.0411,1.53115 0.125,2.21875 0.0839,0.68762 0.22695,1.2927 0.4375,1.8125 0.21054,0.5198 0.47612,0.94815 0.8125,1.25 0.33636,0.30185 0.77626,0.4375 1.28125,0.4375 0.33635,0 0.5848,-0.0119 0.78125,-0.0625 0.19641,-0.0506 0.35275,-0.0912 0.4375,-0.125 V 248.4687 c -0.16863,-0.13412 -0.38966,-0.19985 -0.65625,-0.25 -0.26663,-0.0501 -0.52577,-0.0937 -0.75,-0.0937 z m 75.71875,0.0625 c -0.47675,2e-5 -0.87896,0.13566 -1.1875,0.4375 -0.30855,0.30187 -0.55358,0.71584 -0.75,1.21875 -0.19644,0.50293 -0.33607,1.0818 -0.40625,1.71875 -0.0702,0.63697 -0.0937,1.2673 -0.0937,1.9375 -1e-5,0.73777 0.0236,1.45429 0.0937,2.125 0.0702,0.67075 0.20981,1.26146 0.40625,1.78125 0.19642,0.51982 0.45556,0.94867 0.75,1.25 0.29441,0.30135 0.6795,0.43752 1.15625,0.4375 0.47672,2e-5 0.84768,-0.15045 1.15625,-0.46875 0.30854,-0.31821 0.55055,-0.73018 0.71875,-1.25 0.16818,-0.51979 0.30481,-1.14175 0.375,-1.8125 0.0702,-0.67071 0.0937,-1.35598 0.0937,-2.09375 -10e-6,-1.47446 -0.16365,-2.72727 -0.5,-3.75 -0.33638,-1.0227 -0.94292,-1.53123 -1.8125,-1.53125 z m -69.90625,31.28125 c 1.14946,3e-5 2.13808,0.42586 2.9375,1.28125 0.7994,0.85545 1.1875,1.9958 1.1875,3.4375 0,1.44176 -0.3881,2.5995 -1.1875,3.4375 -0.79942,0.83806 -1.78804,1.25003 -2.9375,1.25 -1.15034,3e-5 -2.10727,-0.41194 -2.90625,-1.25 -0.79898,-0.838 -1.21875,-1.99574 -1.21875,-3.4375 0,-1.4417 0.41977,-2.58205 1.21875,-3.4375 0.79898,-0.85539 1.75591,-1.28122 2.90625,-1.28125 z m -36.437501,0.4375 c 0.56146,3e-5 1.15045,0.041 1.78125,0.125 0.63079,0.084 1.25488,0.20722 1.84375,0.375 1.00994,0.30188 1.86451,0.77133 2.59375,1.375 0.72921,0.60375 1.09374,1.48515 1.09375,2.625 -1e-5,0.50243 -0.16322,1.17636 -0.5,2.03125 -0.33681,0.85493 -0.7489,1.71948 -1.28125,2.625 -0.44851,-0.30182 -1.04861,-0.58799 -1.75,-0.90625 -0.70143,-0.31819 -1.47117,-0.49997 -2.3125,-0.5 -0.72924,3e-5 -1.33921,0.23527 -1.84375,0.6875 -0.50456,0.45231 -0.75,1.15193 -0.75,2.125 v 1.21875 h 6.21875 v 7.5 h -6.21875 v 16.78125 h -8.375 V 291.9375 c 0,-0.43587 0.0174,-1.04148 0.0312,-1.8125 0.0137,-0.77099 0.0374,-1.37407 0.0937,-1.84375 0.36461,-2.71563 1.31855,-4.79336 2.875,-6.21875 1.55645,-1.42533 3.72346,-2.15622 6.5,-2.15625 z m 89.062501,0 c 0.56146,3e-5 1.1817,0.041 1.8125,0.125 0.63079,0.084 1.22362,0.20722 1.8125,0.375 1.00994,0.30188 1.89575,0.77133 2.625,1.375 0.72921,0.60375 1.09374,1.48515 1.09375,2.625 -1e-5,0.50243 -0.19447,1.17636 -0.53125,2.03125 -0.33681,0.85493 -0.7489,1.71948 -1.28125,2.625 -0.44851,-0.30182 -1.01735,-0.58799 -1.71875,-0.90625 -0.70141,-0.31819 -1.50241,-0.49997 -2.34375,-0.5 -0.72924,3e-5 -1.33922,0.23527 -1.84375,0.6875 -0.50457,0.45231 -0.75001,1.15193 -0.75,2.125 v 1.21875 h 6.21875 v 7.5 h -6.21875 v 16.78125 h -8.375 V 291.9375 c 0,-0.43587 0.0174,-1.04148 0.0312,-1.8125 0.0137,-0.77099 0.0374,-1.37407 0.0937,-1.84375 0.36462,-2.71563 1.31854,-4.79336 2.875,-6.21875 1.55644,-1.42533 3.72346,-2.15622 6.5,-2.15625 z m -78.531251,0.40625 c 0.67358,5e-5 1.33795,0.0679 1.96875,0.21875 0.63079,0.15094 1.1795,0.42678 1.65625,0.8125 0.47672,0.3858 0.861811,0.93743 1.156251,1.625 0.29443,0.68765 0.4375,1.55268 0.4375,2.625 v 16.1875 c 0.14036,-0.7367 0.37895,-1.46662 0.6875,-2.1875 0.30854,-0.72085 0.6795,-1.41997 1.15625,-2.125 L 105.14462,294 c 0.53235,-0.80423 1.13589,-1.5069 1.78125,-2.09375 0.64534,-0.5868 1.50377,-0.87497 2.625,-0.875 0.64534,3e-5 1.28913,0.12586 1.90625,0.34375 0.61708,0.21797 1.1795,0.45069 1.65625,0.71875 0.53235,0.30188 1.02324,0.63064 1.5,1 l -5.75,9.65625 6.8125,12.4375 c -1.85134,0.90454 -3.55144,1.34375 -5.09375,1.34375 -1.31809,0 -2.36755,-0.27381 -3.125,-0.84375 -0.75749,-0.56994 -1.40814,-1.31421 -1.96875,-2.21875 L 102.80087,309 c -0.47675,-0.77048 -0.87552,-1.51675 -1.15625,-2.1875 -0.28074,-0.67071 -0.48464,-1.41196 -0.625,-2.25 v 11.40625 H 92.613369 V 280.6875 c 0.33638,-0.0337 0.69789,-0.0896 1.0625,-0.15625 0.30812,-0.0675 0.6525,-0.12244 1.03125,-0.15625 0.37873,-0.0337 0.72913,-0.0625 1.09375,-0.0625 z m 36.906251,0 c 0.67359,5e-5 1.3067,0.0679 1.9375,0.21875 0.63079,0.15094 1.21075,0.42678 1.6875,0.8125 0.47672,0.3858 0.86181,0.93743 1.15625,1.625 0.29443,0.68765 0.43749,1.55268 0.4375,2.625 v 30.1875 c -1.14947,0.4359 -2.19592,0.65625 -3.09375,0.65625 -1.28985,0 -2.2849,-0.19362 -3,-0.5625 -0.71511,-0.36888 -1.24326,-0.86505 -1.59375,-1.46875 -0.35049,-0.6037 -0.55482,-1.27461 -0.625,-2.0625 -0.0702,-0.78788 -0.0937,-1.62821 -0.0937,-2.5 V 280.6875 c 0.33636,-0.0337 0.66663,-0.0896 1.03125,-0.15625 0.30812,-0.0675 0.65252,-0.12244 1.03125,-0.15625 0.37873,-0.0337 0.76039,-0.0625 1.125,-0.0625 z m 23.5625,0 c 0.67273,5e-5 1.3375,0.0679 1.96875,0.21875 0.63121,0.15094 1.1795,0.42678 1.65625,0.8125 0.47672,0.3858 0.8618,0.93743 1.15625,1.625 0.2944,0.68765 0.43747,1.55268 0.4375,2.625 v 30.375 h -6.3125 c -0.42112,0 -0.78865,-0.10896 -1.125,-0.34375 -0.33638,-0.23483 -0.50001,-0.7295 -0.5,-1.5 -0.39286,0.60268 -1.01954,1.13846 -1.875,1.625 -0.85548,0.48654 -1.92892,0.71875 -3.21875,0.71875 -0.95347,0 -1.88685,-0.16237 -2.8125,-0.53125 -0.92566,-0.36888 -1.78833,-1.01556 -2.53125,-1.9375 -0.74292,-0.92193 -1.31821,-2.18858 -1.78125,-3.78125 -0.46304,-1.59264 -0.71875,-3.58517 -0.71875,-6 0,-2.41379 0.22145,-4.47966 0.65625,-6.15625 0.43478,-1.67654 1.02078,-3.02339 1.75,-4.0625 0.72922,-1.03907 1.57777,-1.78032 2.53125,-2.25 0.95346,-0.46965 1.93054,-0.71872 2.96875,-0.71875 0.67273,3e-5 1.27969,0.0822 1.8125,0.25 0.53279,0.16785 0.99625,0.37583 1.375,0.59375 0.37872,0.21797 0.69913,0.43833 0.9375,0.65625 0.23836,0.21798 0.38485,0.36851 0.46875,0.46875 v -12.3125 c 0.3372,-0.0337 0.69873,-0.0896 1.0625,-0.15625 0.30897,-0.0675 0.63538,-0.12244 1,-0.15625 0.36461,-0.0337 0.72912,-0.0625 1.09375,-0.0625 z m 109.53125,1.90625 c 1.96256,5e-5 3.62884,0.38528 5.03125,1.15625 1.40237,0.77103 2.54007,1.91442 3.4375,3.40625 0.89739,1.4919 1.56175,3.30818 1.96875,5.4375 0.40696,2.12937 0.62497,4.53437 0.625,7.25 -3e-5,5.53262 -0.90984,9.797 -2.71875,12.78125 -1.80897,2.98425 -4.65704,4.46875 -8.5,4.46875 -3.87038,0 -6.6945,-1.42852 -8.53125,-4.3125 -1.83676,-2.88396 -2.78125,-7.20432 -2.78125,-12.9375 0,-2.64912 0.23901,-5.0274 0.6875,-7.15625 0.44848,-2.12882 1.13684,-3.9456 2.0625,-5.4375 0.92565,-1.49183 2.11817,-2.6327 3.5625,-3.4375 1.44432,-0.80473 3.16457,-1.2187 5.15625,-1.21875 z m 24.40625,0 c 1.82305,5e-5 3.45547,0.35856 4.84375,1.0625 1.38826,0.70402 2.54349,1.72359 3.46875,3.03125 0.9252,1.30771 1.59945,2.90365 2.0625,4.78125 0.46303,1.87765 0.71872,3.96523 0.71875,6.3125 -3e-5,3.45342 -0.42237,6.42744 -1.25,8.875 -0.82767,2.44757 -1.91781,4.42675 -3.25,5.96875 -1.33222,1.542 -2.84857,2.68487 -4.53125,3.40625 -1.68271,0.72137 -3.35158,1.0625 -5.0625,1.0625 -0.98087,0 -1.77203,-0.0822 -2.375,-0.25 -0.60299,-0.1678 -1.10414,-0.41437 -1.46875,-0.75 -0.36462,-0.33562 -0.62377,-0.73271 -0.75,-1.21875 -0.12626,-0.48602 -0.1875,-1.07979 -0.1875,-1.75 0,-0.50343 0.0553,-1.09415 0.125,-1.78125 0.0698,-0.68709 0.13102,-1.27782 0.1875,-1.78125 0.56061,0.13412 1.01038,0.21624 1.375,0.25 0.36461,0.0338 0.8045,0.0625 1.28125,0.0625 0.64534,0 1.27846,-0.099 1.9375,-0.25 0.65903,-0.15094 1.28613,-0.38112 1.875,-0.75 0.58885,-0.36888 1.15126,-0.87991 1.65625,-1.5 0.50496,-0.62006 0.91361,-1.40441 1.25,-2.34375 -0.61712,0.46967 -1.32603,0.81583 -2.125,1 -0.799,0.18419 -1.51091,0.25 -2.15625,0.25 -1.34635,0 -2.52173,-0.30305 -3.53125,-0.90625 -1.00955,-0.60319 -1.85809,-1.38553 -2.53125,-2.375 -0.67317,-0.98946 -1.19445,-2.13031 -1.53125,-3.4375 -0.3368,-1.30716 -0.5,-2.68475 -0.5,-4.09375 0,-2.17945 0.27928,-4.0472 0.8125,-5.65625 0.53323,-1.60901 1.26528,-2.95786 2.21875,-4.03125 0.95347,-1.07334 2.08171,-1.88693 3.34375,-2.40625 1.26201,-0.51925 2.60705,-0.7812 4.09375,-0.78125 z m -24.5,7.71875 c -0.50499,3e-5 -0.9449,0.14999 -1.28125,0.46875 -0.33639,0.31876 -0.60196,0.83965 -0.8125,1.59375 -0.21057,0.75414 -0.35364,1.74499 -0.4375,2.96875 -0.0839,1.22381 -0.125,2.72267 -0.125,4.5 0,3.52095 0.20131,6.01266 0.59375,7.4375 0.39241,1.42486 1.08077,2.125 2.0625,2.125 0.47672,0 0.8648,-0.14999 1.1875,-0.46875 0.32265,-0.31873 0.60237,-0.87087 0.8125,-1.625 0.21011,-0.75411 0.37031,-1.74495 0.46875,-2.96875 0.0984,-1.22376 0.12499,-2.72264 0.125,-4.5 -10e-6,-1.77733 -0.0266,-3.27619 -0.125,-4.5 -0.0984,-1.22376 -0.25864,-2.21461 -0.46875,-2.96875 -0.21013,-0.7541 -0.48985,-1.27499 -0.8125,-1.59375 -0.3227,-0.31873 -0.71078,-0.46872 -1.1875,-0.46875 z m 24.5625,0.0312 c -0.56062,2e-5 -1.02752,0.41402 -1.40625,1.21875 -0.37875,0.8048 -0.56251,2.01549 -0.5625,3.625 -10e-6,1.64231 0.20732,2.83914 0.65625,3.59375 0.4489,0.75465 1.09314,1.12502 1.90625,1.125 0.64534,2e-5 1.21375,-0.0822 1.71875,-0.25 0.0556,-0.5024 0.0967,-1.01143 0.125,-1.53125 0.0283,-0.51979 0.0312,-1.05504 0.0312,-1.625 -10e-6,-0.80527 -0.0236,-1.57473 -0.0937,-2.3125 -0.0702,-0.73772 -0.20984,-1.39878 -0.40625,-1.96875 -0.19645,-0.56991 -0.44146,-1.03987 -0.75,-1.375 -0.30855,-0.33508 -0.71379,-0.49998 -1.21875,-0.5 z m -92.4375,1.0625 c 2.29979,3e-5 4.3203,0.412 6.03125,1.25 0.7566,0.36941 1.38412,0.82396 1.875,1.34375 0.49084,0.51982 0.71872,1.13979 0.71875,1.84375 -3e-5,0.6027 -0.14651,1.31774 -0.46875,2.15625 -0.32226,0.83856 -0.71079,1.63475 -1.1875,2.40625 -0.84222,-0.7715 -1.73104,-1.38894 -2.65625,-1.875 -0.92524,-0.48601 -1.85904,-0.74998 -2.8125,-0.75 -1.20597,2e-5 -1.8125,0.44324 -1.8125,1.28125 0,0.53619 0.20776,0.93379 0.65625,1.21875 0.44848,0.28498 1.01433,0.51769 1.6875,0.71875 0.67316,0.20108 1.4022,0.4358 2.1875,0.6875 0.78526,0.25173 1.51431,0.6221 2.1875,1.125 0.67315,0.50293 1.23856,1.19072 1.6875,2.0625 0.4489,0.87181 0.65624,2.02955 0.65625,3.4375 -1e-5,2.68292 -0.79032,4.81361 -2.375,6.40625 -1.58471,1.59267 -3.87724,2.375 -6.90625,2.375 -1.73919,0 -3.09491,-0.15001 -4.0625,-0.46875 -0.9676,-0.31874 -1.72064,-0.63312 -2.28125,-0.96875 -0.72924,-0.43589 -1.25094,-0.9177 -1.53125,-1.4375 -0.2803,-0.5198 -0.40625,-1.05506 -0.40625,-1.625 0,-0.87179 0.18076,-1.72446 0.53125,-2.5625 0.35049,-0.83801 0.73901,-1.66447 1.1875,-2.46875 0.33636,0.36838 0.72145,0.71251 1.15625,1.03125 0.43478,0.31874 0.90126,0.60691 1.40625,0.875 0.50498,0.26809 1.0297,0.47409 1.5625,0.625 0.53279,0.15094 1.05751,0.21875 1.5625,0.21875 0.72921,0 1.22268,-0.12132 1.53125,-0.40625 0.30854,-0.28496 0.46874,-0.65785 0.46875,-1.09375 -1e-5,-0.50342 -0.22446,-0.91688 -0.6875,-1.21875 -0.46304,-0.30184 -1.04559,-0.54691 -1.71875,-0.78125 -0.67317,-0.23431 -1.40567,-0.51065 -2.21875,-0.8125 -0.81311,-0.30185 -1.54559,-0.7302 -2.21875,-1.25 -0.67317,-0.51969 -1.25613,-1.20753 -1.71875,-2.06245 -0.46261,-0.8549 -0.6875,-1.96851 -0.6875,-3.34375 0,-1.34041 0.24201,-2.49414 0.71875,-3.5 0.47672,-1.00581 1.10727,-1.84613 1.90625,-2.5 0.79897,-0.65381 1.71222,-1.14999 2.75,-1.46875 1.03778,-0.31871 2.13091,-0.46872 3.28125,-0.46875 z m 20.71875,0 c 3.2815,3e-5 5.61473,0.77001 7.03125,2.3125 1.4165,1.54255 2.12497,3.99064 2.125,7.34375 v 9.8125 c -3e-5,0.83803 0.0753,1.76053 0.1875,2.75 0.11205,0.98946 0.27273,1.85599 0.46875,2.59375 -0.39287,0.13412 -0.75439,0.22858 -1.0625,0.3125 -0.30815,0.084 -0.61142,0.13738 -0.90625,0.1875 -0.29487,0.0501 -0.61528,0.10817 -0.9375,0.125 -0.32228,0.0168 -0.66965,0 -1.0625,0 -2.27156,0 -3.57291,-0.76948 -3.9375,-2.3125 -0.47675,0.56994 -1.19935,1.09285 -2.125,1.5625 -0.92566,0.46967 -2.09805,0.71875 -3.5,0.71875 -0.8696,0 -1.7006,-0.13824 -2.5,-0.40625 -0.7994,-0.26809 -1.50791,-0.69444 -2.125,-1.28125 -0.61711,-0.58683 -1.10414,-1.35681 -1.46875,-2.3125 -0.36462,-0.95569 -0.53126,-2.12476 -0.53125,-3.5 -1e-5,-1.94413 0.42578,-3.49948 1.28125,-4.65625 0.85547,-1.15675 1.87366,-2.02128 3.09375,-2.625 1.22007,-0.60369 2.50852,-0.98894 3.8125,-1.15625 1.30395,-0.16728 2.41766,-0.24998 3.34375,-0.25 v -0.71875 c -1e-5,-0.46965 -0.0784,-0.84002 -0.21875,-1.125 -0.14037,-0.28496 -0.32414,-0.50529 -0.5625,-0.65625 -0.23837,-0.15094 -0.52108,-0.26235 -0.84375,-0.3125 -0.32268,-0.0501 -0.66664,-0.0625 -1.03125,-0.0625 -0.98086,3e-5 -1.95236,0.15059 -2.90625,0.46875 -0.9539,0.31824 -2.00978,0.82879 -3.1875,1.5 -0.53323,-0.77149 -0.95257,-1.54348 -1.21875,-2.28125 -0.26618,-0.73774 -0.40625,-1.28787 -0.40625,-1.65625 0,-0.50342 0.15719,-0.98521 0.4375,-1.4375 0.28031,-0.45224 0.84915,-0.93404 1.71875,-1.4375 0.75747,-0.46964 1.77265,-0.82565 3.0625,-1.09375 1.28983,-0.26807 2.6224,-0.40622 3.96875,-0.40625 z m 25.9375,0 c 0.86958,3e-5 1.74512,0.20801 2.65625,0.59375 0.91107,0.38578 1.75662,1.01559 2.5,1.9375 0.74332,0.92196 1.34987,2.15989 1.8125,3.71875 0.46258,1.55891 0.68747,3.49899 0.6875,5.8125 -3e-5,2.7167 -0.24203,4.94443 -0.71875,6.6875 -0.47675,1.74308 -1.12099,3.13353 -1.90625,4.15625 -0.7853,1.02272 -1.65743,1.73925 -2.625,2.125 -0.96761,0.38575 -1.92455,0.5625 -2.90625,0.5625 -0.75663,0 -1.42184,-0.097 -1.96875,-0.28125 -0.54693,-0.18419 -0.99628,-0.40453 -1.375,-0.65625 -0.37875,-0.2517 -0.69614,-0.46955 -0.90625,-0.6875 -0.21013,-0.21794 -0.31551,-0.36846 -0.34375,-0.46875 v 12.40625 h -8.34375 v -35 c 0.25249,-0.0675 0.56987,-0.12104 0.90625,-0.1875 0.30811,-0.0675 0.63839,-0.12292 1.03125,-0.15625 0.39286,-0.0332 0.83876,-0.0625 1.34375,-0.0625 2.55228,3e-5 4.12988,0.79674 4.71875,2.40625 0.47672,-0.77149 1.14452,-1.4444 2,-2.03125 0.85547,-0.5868 2.00728,-0.87497 3.4375,-0.875 z m -123.53125,0.5 c 0.67359,3e-5 1.3067,0.0679 1.9375,0.21875 0.63079,0.15094 1.21075,0.42727 1.6875,0.8125 0.47672,0.38527 0.86181,0.9374 1.15625,1.625 0.29441,0.68762 0.43749,1.55266 0.4375,2.625 v 17.8125 c -1e-5,0.73776 -0.0377,1.66026 -0.0937,2.75 -0.056,1.08973 -0.17901,2.06569 -0.375,2.9375 -0.30899,1.34144 -0.7926,2.46995 -1.4375,3.375 -0.64493,0.90504 -1.35685,1.63392 -2.15625,2.1875 -0.79942,0.55355 -1.62439,0.92193 -2.4375,1.15625 -0.8131,0.23431 -1.5049,0.37498 -2.09375,0.375 -1.20596,-2e-5 -2.09521,-0.29072 -2.65625,-0.84375 -0.56104,-0.55307 -0.929,-1.36415 -1.125,-2.4375 -0.0847,-0.4359 -0.14555,-0.88898 -0.1875,-1.375 -0.042,-0.48604 -0.0998,-1.16199 -0.15625,-2 0.89784,-0.1003 1.62646,-0.2919 2.1875,-0.59375 0.56104,-0.30185 1.00395,-0.68658 1.3125,-1.15625 0.30855,-0.46967 0.51287,-1.00492 0.625,-1.625 0.11218,-0.62008 0.1875,-1.32474 0.1875,-2.0625 v -23.4375 c 0.33636,-0.0338 0.66663,-0.0585 1.03125,-0.125 0.30812,-0.0675 0.65252,-0.12292 1.03125,-0.15625 0.37873,-0.0332 0.76038,-0.0625 1.125,-0.0625 z m 119.75,6.6875 c -0.33724,2e-5 -0.61651,0.0437 -0.8125,0.0937 -0.19602,0.0501 -0.32152,0.0912 -0.40625,0.125 v 10.15625 c 0.1686,0.13412 0.35838,0.23111 0.625,0.28125 0.2666,0.0501 0.52574,0.0625 0.75,0.0625 0.95346,2e-5 1.61825,-0.53576 1.96875,-1.625 0.35048,-1.08921 0.49999,-2.5064 0.5,-4.25 -1e-5,-1.50924 -0.18378,-2.70757 -0.5625,-3.5625 -0.37875,-0.85489 -1.05341,-1.28123 -2.0625,-1.28125 z m -89.375,0.21875 c -0.76834,0.11003 -1.28708,0.61992 -1.59375,1.5 -0.3505,1.00586 -0.53126,2.38143 -0.53125,4.125 -1e-5,0.80428 0.0411,1.5624 0.125,2.25 0.0839,0.68762 0.22693,1.26145 0.4375,1.78125 0.21054,0.5198 0.47612,0.94816 0.8125,1.25 0.33635,0.30187 0.77626,0.4375 1.28125,0.4375 0.33635,0 0.58481,-0.0117 0.78125,-0.0625 0.19642,-0.0506 0.35275,-0.0912 0.4375,-0.125 v -10.8125 c -0.16863,-0.13412 -0.38965,-0.2311 -0.65625,-0.28125 -0.26662,-0.0501 -0.52577,-0.0625 -0.75,-0.0625 -0.11919,0 -0.23399,-0.0157 -0.34375,0 z m 68.53125,6.2813 c -0.53238,0.0676 -1.0541,0.17846 -1.53125,0.3125 -0.47717,0.13412 -0.89952,0.31132 -1.25,0.5625 -0.3505,0.25121 -0.60239,0.56612 -0.8125,0.96875 -0.21013,0.40266 -0.34376,0.92607 -0.34375,1.5625 -1e-5,0.77154 0.18075,1.36224 0.53125,1.78125 0.35048,0.41901 0.85164,0.65625 1.46875,0.65625 0.50496,0 0.95131,-0.13823 1.34375,-0.40625 0.39241,-0.26807 0.59374,-0.68154 0.59375,-1.21875 z m 89.28125,2.65625 c 1.1777,0 2.13163,0.42635 2.875,1.28125 0.74332,0.85492 1.12499,1.96955 1.125,3.34375 -10e-6,1.37522 -0.36153,2.51758 -1.0625,3.40625 -0.701,0.88868 -1.67506,1.3125 -2.9375,1.3125 -1.23422,0 -2.2224,-0.42382 -2.9375,-1.3125 -0.71511,-0.88867 -1.0625,-2.03103 -1.0625,-3.40625 0,-1.3742 0.39878,-2.48883 1.15625,-3.34375 0.75747,-0.8549 1.69428,-1.28125 2.84375,-1.28125 z m -142.6875,22.375 c 1.14946,3e-5 2.10683,0.42586 2.90625,1.28125 0.7994,0.85545 1.21875,2.02705 1.21875,3.46875 0,1.44176 -0.41935,2.56825 -1.21875,3.40625 -0.79942,0.83806 -1.75679,1.25003 -2.90625,1.25 -1.15034,3e-5 -2.13852,-0.41194 -2.9375,-1.25 -0.79898,-0.838 -1.1875,-1.96449 -1.1875,-3.40625 0,-1.4417 0.38852,-2.6133 1.1875,-3.46875 0.79898,-0.85539 1.78716,-1.28122 2.9375,-1.28125 z m -33,0.46875 c 0.56146,3e-5 1.1817,0.041 1.8125,0.125 0.63079,0.084 1.22363,0.20722 1.8125,0.375 1.00996,0.30188 1.89575,0.74008 2.625,1.34375 0.7292,0.60375 1.09374,1.48515 1.09375,2.625 -1e-5,0.50243 -0.19447,1.17636 -0.53125,2.03125 -0.33681,0.85493 -0.7489,1.75073 -1.28125,2.65625 -0.44851,-0.30182 -1.04861,-0.61924 -1.75,-0.9375 -0.70143,-0.31819 -1.47117,-0.46872 -2.3125,-0.46875 -0.72924,3e-5 -1.33921,0.20402 -1.84375,0.65625 -0.50456,0.45231 -0.75001,1.18318 -0.75,2.15625 v 1.1875 h 6.21875 v 7.5 h -6.21875 v 16.8125 h -8.375 v -24.0625 c -1e-5,-0.43587 0.0174,-1.01023 0.0312,-1.78125 0.0137,-0.77099 0.0373,-1.40532 0.0937,-1.875 0.36461,-2.71563 1.31855,-4.79336 2.875,-6.21875 1.55645,-1.42533 3.72346,-2.12497 6.5,-2.125 z m 50.28125,0 c 0.56146,3e-5 1.1817,0.041 1.8125,0.125 0.63079,0.084 1.22363,0.20722 1.8125,0.375 1.00994,0.30188 1.89576,0.74008 2.625,1.34375 0.72921,0.60375 1.09374,1.48515 1.09375,2.625 -1e-5,0.50243 -0.16322,1.17636 -0.5,2.03125 -0.33681,0.85493 -0.78015,1.75073 -1.3125,2.65625 -0.44851,-0.30182 -1.01736,-0.61924 -1.71875,-0.9375 -0.70143,-0.31819 -1.47117,-0.46872 -2.3125,-0.46875 -0.72924,3e-5 -1.37046,0.20402 -1.875,0.65625 -0.50456,0.45231 -0.75,1.18318 -0.75,2.15625 v 1.1875 h 6.21875 v 7.5 h -6.21875 v 16.8125 h -8.375 v -24.0625 c 0,-0.43587 0.0174,-1.01023 0.0312,-1.78125 0.0137,-0.77099 0.0372,-1.40532 0.0937,-1.875 0.36461,-2.71563 1.31855,-4.79336 2.875,-6.21875 1.55645,-1.42533 3.72346,-2.12497 6.5,-2.125 z m 51.5625,0.40625 c 0.67359,5e-5 1.3067,0.0679 1.9375,0.21875 0.63079,0.15094 1.1795,0.42678 1.65625,0.8125 0.47672,0.3858 0.86181,0.90618 1.15625,1.59375 0.29441,0.68765 0.43749,1.58393 0.4375,2.65625 v 16.1875 c 0.14036,-0.7367 0.37893,-1.46662 0.6875,-2.1875 0.30854,-0.72085 0.71075,-1.45122 1.1875,-2.15625 l 2.25,-3.46875 c 0.53235,-0.80423 1.13589,-1.47565 1.78125,-2.0625 0.64534,-0.5868 1.535,-0.90622 2.65625,-0.90625 0.64532,3e-5 1.25788,0.12586 1.875,0.34375 0.61708,0.21797 1.17949,0.45069 1.65625,0.71875 0.53234,0.30188 1.02325,0.63064 1.5,1 l -5.75,9.65625 6.8125,12.4375 c -1.85134,0.90454 -3.55144,1.34375 -5.09375,1.34375 -1.3181,0 -2.36755,-0.27381 -3.125,-0.84375 -0.75748,-0.56994 -1.40815,-1.31421 -1.96875,-2.21875 l -2.6875,-4.46875 c -0.47675,-0.77048 -0.84428,-1.4855 -1.125,-2.15625 -0.28074,-0.67071 -0.51589,-1.44321 -0.65625,-2.28125 v 11.4375 h -8.40625 v -35.3125 c 0.33636,-0.0337 0.69788,-0.0896 1.0625,-0.15625 0.30812,-0.0675 0.65252,-0.12244 1.03125,-0.15625 0.37873,-0.0337 0.76038,-0.0312 1.125,-0.0312 z m 25.125,0 c 0.67359,5e-5 1.33795,0.0679 1.96875,0.21875 0.63079,0.15094 1.17951,0.42678 1.65625,0.8125 0.47674,0.3858 0.86181,0.90618 1.15625,1.59375 0.29441,0.68765 0.4375,1.58393 0.4375,2.65625 v 30.15625 c -1.14947,0.4359 -2.16466,0.65625 -3.0625,0.65625 -1.28983,0 -2.2849,-0.16237 -3,-0.53125 -0.71511,-0.36888 -1.27451,-0.86505 -1.625,-1.46875 -0.35049,-0.6037 -0.55482,-1.30586 -0.625,-2.09375 -0.0702,-0.78788 -0.0937,-1.62819 -0.0937,-2.5 v -29.15625 c 0.33636,-0.0337 0.66664,-0.0896 1.03125,-0.15625 0.30812,-0.0675 0.65252,-0.12244 1.03125,-0.15625 0.37873,-0.0337 0.76038,-0.0312 1.125,-0.0312 z m -109.90625,10.6875 c 1.71092,3e-5 3.16901,0.30256 4.375,0.90625 1.20593,0.60372 2.19413,1.43169 2.9375,2.4375 0.74332,1.00586 1.25737,2.15907 1.59375,3.5 0.33635,1.34096 0.53122,2.77452 0.53125,4.25 -3e-5,0.16783 -3e-5,0.37129 0,0.65625 -3e-5,0.28498 -0.0168,0.57315 -0.0312,0.875 -0.0142,0.30187 -0.0177,0.60693 -0.0312,0.875 -0.0137,0.2681 -0.0342,0.45971 -0.0625,0.59375 h -11.25 c 0.14036,1.27393 0.54257,2.36133 1.1875,3.25 0.64492,0.88868 1.66353,1.34375 3.09375,1.34375 1.12206,0 2.08669,-0.22286 2.84375,-0.625 0.75703,-0.40211 1.49251,-0.9225 2.25,-1.59375 0.36459,0.67125 0.72912,1.44071 1.09375,2.3125 0.36459,0.87179 0.56247,1.64229 0.5625,2.3125 -3e-5,0.56994 -0.12251,1.09084 -0.375,1.59375 -0.2525,0.50291 -0.69928,0.99908 -1.34375,1.46875 -0.61712,0.43589 -1.44812,0.7919 -2.5,1.09375 -1.05191,0.30185 -2.36694,0.46875 -3.9375,0.46875 -1.14947,0 -2.40024,-0.16437 -3.71875,-0.5 -1.31852,-0.33562 -2.5346,-0.99667 -3.65625,-1.96875 -1.12165,-0.97206 -2.03791,-2.33328 -2.78125,-4.09375 -0.74335,-1.76047 -1.125,-4.05654 -1.125,-6.90625 0,-2.11295 0.30327,-3.95798 0.90625,-5.5 0.60298,-1.54199 1.37615,-2.80664 2.34375,-3.8125 0.96759,-1.00581 2.09542,-1.74907 3.34375,-2.21875 1.24832,-0.46965 2.48839,-0.71872 3.75,-0.71875 z m 50.0625,0 c 3.2815,3e-5 5.64598,0.80126 7.0625,2.34375 1.4165,1.54255 2.12497,3.95939 2.125,7.3125 v 9.8125 c -3e-5,0.83803 0.0441,1.76053 0.15625,2.75 0.11205,0.98946 0.27273,1.85599 0.46875,2.59375 -0.39287,0.13412 -0.75439,0.22858 -1.0625,0.3125 -0.30815,0.084 -0.58017,0.16863 -0.875,0.21875 -0.29487,0.0501 -0.61526,0.077 -0.9375,0.0937 -0.32226,0.0168 -0.66965,0.0312 -1.0625,0.0312 -2.27156,0 -3.60416,-0.76948 -3.96875,-2.3125 -0.47675,0.56994 -1.1681,1.09285 -2.09375,1.5625 -0.92566,0.46967 -2.09805,0.6875 -3.5,0.6875 -0.8696,0 -1.7006,-0.13824 -2.5,-0.40625 -0.79942,-0.26809 -1.50791,-0.69444 -2.125,-1.28125 -0.61711,-0.58683 -1.10414,-1.35681 -1.46875,-2.3125 -0.36462,-0.95569 -0.5625,-2.12476 -0.5625,-3.5 0,-1.94413 0.42577,-3.46823 1.28125,-4.625 0.85547,-1.15675 1.90491,-2.05253 3.125,-2.65625 1.22009,-0.60369 2.47727,-0.98894 3.78125,-1.15625 1.30395,-0.16728 2.41766,-0.24998 3.34375,-0.25 v -0.71875 c -1e-5,-0.46965 -0.0784,-0.84002 -0.21875,-1.125 -0.14037,-0.28496 -0.32414,-0.50529 -0.5625,-0.65625 -0.23837,-0.15094 -0.52108,-0.2311 -0.84375,-0.28125 -0.32268,-0.0501 -0.66664,-0.0937 -1.03125,-0.0937 -0.98087,3e-5 -1.95236,0.18184 -2.90625,0.5 -0.9539,0.31824 -2.0098,0.79754 -3.1875,1.46875 -0.53323,-0.77149 -0.92132,-1.51223 -1.1875,-2.25 -0.26618,-0.73774 -0.40625,-1.31911 -0.40625,-1.6875 0,-0.5034 0.12594,-0.95396 0.40625,-1.40625 0.28031,-0.45224 0.8804,-0.93404 1.75,-1.4375 0.75747,-0.46964 1.77265,-0.8569 3.0625,-1.125 1.28983,-0.26807 2.59115,-0.40622 3.9375,-0.40625 z m 20.3125,0 c 2.29979,3e-5 4.28904,0.44325 6,1.28125 0.75659,0.36941 1.38412,0.79271 1.875,1.3125 0.49084,0.51982 0.74999,1.13979 0.75,1.84375 -1e-5,0.6027 -0.17778,1.31774 -0.5,2.15625 -0.32226,0.83856 -0.71078,1.666 -1.1875,2.4375 -0.84222,-0.7715 -1.73104,-1.42019 -2.65625,-1.90625 -0.92524,-0.48601 -1.85904,-0.71873 -2.8125,-0.71875 -1.20597,2e-5 -1.81251,0.41199 -1.8125,1.25 -1e-5,0.53619 0.23901,0.96504 0.6875,1.25 0.44849,0.28498 1.01433,0.51769 1.6875,0.71875 0.67315,0.20108 1.4022,0.4358 2.1875,0.6875 0.78528,0.25173 1.51433,0.6221 2.1875,1.125 0.67315,0.50293 1.20731,1.19072 1.65625,2.0625 0.4489,0.87181 0.68749,1.9983 0.6875,3.40625 -1e-5,2.68292 -0.79032,4.81361 -2.375,6.40625 -1.58471,1.59267 -3.90849,2.40625 -6.9375,2.40625 -1.73919,0 -3.09491,-0.15001 -4.0625,-0.46875 -0.9676,-0.31874 -1.72064,-0.66437 -2.28125,-1 -0.72922,-0.43589 -1.2197,-0.9177 -1.5,-1.4375 -0.28031,-0.5198 -0.4375,-1.05506 -0.4375,-1.625 0,-0.87179 0.18076,-1.72446 0.53125,-2.5625 0.35049,-0.83801 0.73901,-1.66447 1.1875,-2.46875 0.33636,0.36838 0.72145,0.71251 1.15625,1.03125 0.4348,0.31874 0.93252,0.60693 1.4375,0.875 0.50498,0.2681 0.99845,0.47409 1.53125,0.625 0.53279,0.15094 1.05751,0.25 1.5625,0.25 0.72921,0 1.25393,-0.15257 1.5625,-0.4375 0.30854,-0.28496 0.46874,-0.65785 0.46875,-1.09375 -1e-5,-0.50342 -0.22447,-0.88563 -0.6875,-1.1875 -0.46305,-0.30184 -1.04559,-0.57816 -1.71875,-0.8125 -0.67316,-0.23431 -1.40565,-0.51065 -2.21875,-0.8125 -0.81311,-0.30185 -1.57684,-0.69895 -2.25,-1.21875 -0.67316,-0.51979 -1.22489,-1.20758 -1.6875,-2.0625 -0.46262,-0.8549 -0.6875,-1.96851 -0.6875,-3.34375 0,-1.34041 0.21076,-2.52539 0.6875,-3.53125 0.47674,-1.00581 1.13852,-1.84613 1.9375,-2.5 0.79898,-0.65381 1.71221,-1.11874 2.75,-1.4375 1.03776,-0.31871 2.13091,-0.49997 3.28125,-0.5 z m -55.1875,0.53125 c 0.67359,3e-5 1.3067,0.0679 1.9375,0.21875 0.63079,0.15094 1.1795,0.42727 1.65625,0.8125 0.47672,0.38527 0.86181,0.90615 1.15625,1.59375 0.29441,0.68762 0.43749,1.58391 0.4375,2.65625 v 17.78125 c -1e-5,0.73776 -0.006,1.66026 -0.0625,2.75 -0.056,1.08973 -0.17901,2.06569 -0.375,2.9375 -0.30899,1.34144 -0.7926,2.46995 -1.4375,3.375 -0.64493,0.90504 -1.35685,1.63392 -2.15625,2.1875 -0.79942,0.55355 -1.6244,0.95318 -2.4375,1.1875 -0.8131,0.23431 -1.5049,0.34373 -2.09375,0.34375 -1.20596,-2e-5 -2.09521,-0.25947 -2.65625,-0.8125 -0.56104,-0.55308 -0.929,-1.3954 -1.125,-2.46875 -0.0847,-0.4359 -0.14555,-0.88898 -0.1875,-1.375 -0.0419,-0.48604 -0.0998,-1.13074 -0.15625,-1.96875 0.89784,-0.1003 1.62646,-0.32315 2.1875,-0.625 0.56104,-0.30185 1.00395,-0.6866 1.3125,-1.15625 0.30855,-0.46967 0.51287,-1.00492 0.625,-1.625 0.11218,-0.62009 0.15625,-1.29349 0.15625,-2.03125 v -23.4375 c 0.33636,-0.0338 0.69788,-0.0898 1.0625,-0.15625 0.30812,-0.0675 0.65252,-0.12292 1.03125,-0.15625 0.37873,-0.0332 0.76038,-0.0312 1.125,-0.0312 z m -15.28125,5.78125 c -1.31894,2e-5 -1.96876,1.21122 -1.96875,3.625 h 4.03125 c -1e-5,-1.37419 -0.14651,-2.32393 -0.46875,-2.84375 -0.32226,-0.51977 -0.86453,-0.78123 -1.59375,-0.78125 z M 201.89462,355 c -0.53238,0.0675 -1.02285,0.17846 -1.5,0.3125 -0.47717,0.13412 -0.89951,0.31132 -1.25,0.5625 -0.35049,0.25121 -0.63364,0.59737 -0.84375,1 -0.21013,0.40266 -0.31251,0.92607 -0.3125,1.5625 -1e-5,0.77154 0.18076,1.36224 0.53125,1.78125 0.35049,0.41901 0.82038,0.625 1.4375,0.625 0.50496,0 0.95131,-0.13823 1.34375,-0.40625 0.39241,-0.26807 0.59375,-0.68154 0.59375,-1.21875 z M 28.730556,411.51562 a 6.4729754,6.4729754 0 0 0 -5.26953,2.7129 l -18.03907,25.27929 a 6.4729754,6.4729754 0 0 0 5.269529,10.23242 H 374.2286 a 6.4729754,6.4729754 0 0 0 5.2461,-10.26171 l -18.25781,-25.28125 a 6.4729754,6.4729754 0 0 0 -5.2461,-2.68165 z m -22.03907,49.99024 a 6.4729754,6.4729754 0 0 0 -6.47265,6.43945 L 8.598e-5,511.48438 A 6.4729754,6.4729754 0 0 0 6.470786,517.99023 H 378.2286 a 6.4729754,6.4729754 0 0 0 6.47266,-6.47265 v -43.53906 a 6.4729754,6.4729754 0 0 0 -6.47266,-6.47266 z"
         id="path27" /></symbol></defs><sodipodi:namedview
     id="namedview1"
     pagecolor="#ffffff"
     bordercolor="#666666"
     borderopacity="1.0"
     inkscape:showpageshadow="2"
     inkscape:pageopacity="0.0"
     inkscape:pagecheckerboard="0"
     inkscape:deskcolor="#d1d1d1"
     inkscape:zoom="0.70710678"
     inkscape:cx="700.74282"
     inkscape:cy="657.6093"
     inkscape:window-width="2558"
     inkscape:window-height="1360"
     inkscape:window-x="-7"
     inkscape:window-y="1440"
     inkscape:window-maximized="0"
     inkscape:current-layer="svg1" /><g
     id="g30"
     transform="matrix(0.89299008,0,0,1,100.03808,3)"
     inkscape:label="text background"><path
       id="rect20"
       style="font-variation-settings:'wght' 700;fill:#9e0f20;stroke-width:25.046;stroke-linejoin:round"
       d="m 549.73128,40.464798 h 415.12768 c 14.43688,0 26.05934,11.622465 26.05934,26.059339 V 954.32947 c 0,14.43687 -11.62246,26.05934 -26.05934,26.05934 H 549.73128 c -14.43688,0 -26.05934,-11.62247 -26.05934,-26.05934 V 66.524137 c 0,-14.436874 11.62246,-26.059339 26.05934,-26.059339 z" /><path
       id="rect17"
       style="font-variation-settings:'wght' 700;fill:#f32735;fill-opacity:1;stroke:none;stroke-width:25.046;stroke-linejoin:round;stroke-dasharray:none;stroke-dashoffset:0;stroke-opacity:1;paint-order:normal"
       d="m 549.73047,40.464844 c -14.43688,0 -26.05859,11.621719 -26.05859,26.058594 V 954.33008 c 0,8.78168 4.30155,16.52171 10.91992,21.23828 L 981.8457,46.732422 c -4.55548,-3.909751 -10.48483,-6.267578 -16.98632,-6.267578 z" /></g><path
     style="font-variation-settings:'wght' 700;baseline-shift:baseline;display:inline;overflow:visible;vector-effect:none;fill:#180305;stroke-linejoin:round;enable-background:accumulate;stop-color:#000000;fill-opacity:1"
     d="m 593.73047,20.941406 c -21.158,0 -38.58203,17.424029 -38.58203,38.582031 V 967.33008 c 0,21.158 17.42403,38.58202 38.58203,38.58202 h 367.1289 c 21.15801,0 38.58203,-17.42402 38.58203,-38.58202 V 59.523437 c 0,-21.158002 -17.42402,-38.582031 -38.58203,-38.582031 z m 0,25.046875 h 367.1289 c 7.71575,0 13.53516,5.819411 13.53516,13.535156 V 967.33008 c 0,7.71574 -5.81941,13.53515 -13.53516,13.53515 h -367.1289 c -7.71575,0 -13.53516,-5.81941 -13.53516,-13.53515 V 59.523437 c 0,-7.715745 5.81941,-13.535156 13.53516,-13.535156 z"
     id="path20"
     sodipodi:nodetypes="ssssssssssssssssss"
     inkscape:label="text back border" /><g
     id="g31"
     inkscape:label="letters"
     transform="translate(24)"><path
       d="m 831.66337,798.23753 c 0,0 35.57388,-30.37198 44.57388,-104.87198 h -92.43336 c -3.5,30.75 -26.88919,56.87634 -26.88919,56.87634 9.99138,3.62741 59.74537,29.77032 74.74867,47.99564 z m -119.7435,132.88688 v -73.80216 l 3.5,1.31619 c 35.25,18.25 55.59675,25.42476 72.59675,72.92476 l 88.23886,0.82348 c -14.75,-98.25 -118.94325,-154.05191 -163.44325,-165.05191 l -0.89236,-73.96922 h -85.85954 v 237.75886 z"
       id="path26"
       style="font-size:393.064px;line-height:0.85;font-family:'Bauhaus 93';-inkscape-font-specification:'Bauhaus 93, Normal';letter-spacing:28.6779px;fill:#ffffff;stroke:#1a0002;stroke-width:25"
       sodipodi:nodetypes="ccccccccccccccc" /><path
       d="M 711.91987,459.82688 V 525.3063 H 626.06033 V 391.54739 H 737.9315 c 49.06259,0 87.48086,9.1736 115.2548,27.52081 32.99036,21.94698 45.48554,51.73216 45.48554,89.35555 0,35.99769 -10.09844,65.37644 -38.29533,88.13626 -28.19689,22.75983 -64.50039,34.13975 -108.9105,34.13975 -5.21642,0 -113.74598,-0.23225 -125.58868,-0.69674 v -69.84711 h 113.74599 c 50.04948,0 71.07422,-17.24405 71.07422,-51.73216 0,-32.39791 -20.60179,-48.59687 -69.80536,-48.59687 z"
       id="path25"
       style="font-size:393.064px;line-height:0.85;font-family:'Bauhaus 93';-inkscape-font-specification:'Bauhaus 93, Normal';letter-spacing:28.6779px;fill:#ffffff;stroke:#1a0002;stroke-width:25"
       sodipodi:nodetypes="ccccscsssccsssc" /><path
       d="m 714.01138,156.60752 v 65.47942 H 628.15184 V 88.328019 h 111.87117 c 49.06259,0 87.48086,9.17361 115.25483,27.520821 32.9903,21.94698 45.4855,51.73216 45.4855,89.35555 0,35.99769 -10.0984,65.37644 -38.2953,88.13626 -28.19691,22.75983 -64.50041,34.13975 -108.91052,34.13975 -5.21642,0 -113.74598,-0.23225 -125.58868,-0.69674 v -69.84711 h 113.74599 c 50.04948,0 71.07422,-17.24405 71.07422,-51.73216 0,-32.39791 -20.60179,-48.59687 -69.80536,-48.59687 z"
       id="path25-1"
       style="font-size:393.064px;line-height:0.85;font-family:'Bauhaus 93';-inkscape-font-specification:'Bauhaus 93, Normal';letter-spacing:28.6779px;fill:#ffffff;stroke:#1a0002;stroke-width:25"
       sodipodi:nodetypes="ccccscsssccsssc" /></g><g
     inkscape:groupmode="layer"
     inkscape:label="Image"
     id="g1"><g
       id="g15"
       transform="matrix(1.5776872,0,0,1.5776872,-476.71852,7.776673)"><path
         id="path9"
         style="fill:#9c6c20;fill-opacity:1;stroke-width:0.624367"
         d="m 523.95304,243.45941 -4.93838,0.72322 c -15.41964,2.25465 -51.48925,15.45901 -113.75131,41.64293 -21.55169,9.06342 -38.73727,17.84387 -45.11463,23.039 -0.10118,0.18112 -0.18882,0.37121 -0.26175,0.5721 -0.37415,1.16023 -0.0241,2.3909 0.10794,3.56481 0.89342,4.8061 2.07757,9.55377 3.20589,14.30915 2.78789,11.42799 5.73628,22.81488 8.67994,34.20432 1.67641,6.58238 3.4443,13.14346 4.92488,19.77374 0.13417,0.61688 0.29178,1.35602 0.39399,1.90115 0.16,0.86034 0.29922,1.68465 0.41693,2.59062 0.41239,2.76342 0.19047,5.55775 0.0405,8.33182 -0.20803,3.63481 -0.50173,7.34058 -0.89863,11.00341 -0.23833,2.15808 -0.53107,4.51276 -0.85004,6.65466 -0.16044,1.12793 -0.36373,2.34663 -0.53702,3.41233 -1.30986,7.69368 -3.16566,15.28787 -5.41737,22.75836 -0.47386,1.60953 -0.97537,3.21061 -1.4923,4.80615 -1.1823,4.01175 -2.54413,8.34071 -4.11936,13.11638 -1.19267,3.61583 -2.27807,7.10309 -3.07637,9.83627 -0.0417,0.31343 -0.0726,0.62856 -0.089,0.94585 -0.0932,1.12147 0.32747,2.19288 0.91481,3.12764 2.38144,3.75453 5.07374,7.30176 7.74758,10.85094 9.55515,12.48133 19.41761,24.72711 29.57359,36.72478 4.24043,5.04524 8.60637,9.98484 13.13797,14.7706 7.56481,7.99861 15.29763,15.83765 23.0633,23.6408 9.59052,9.5873 19.23959,19.11748 29.08379,28.44558 2.82903,2.63963 5.64533,5.30229 8.61518,7.78266 1.81996,-0.0893 3.07965,-0.47494 3.23962,-0.47494 0.48484,0 0.59605,-2.93089 0.43312,-5.80596 -5.84512,-103.14435 -10.13788,-169.53713 -10.26804,-171.22133 l -0.4601,-5.95439 -12.8101,-4.27588 c -20.48262,-7.201 -26.29367,-12.17825 -33.6943,-20.07328 -4.08488,-3.25627 -7.73195,-7.04556 -10.58377,-11.43923 -0.0541,-0.0813 -0.10864,-0.1641 -0.16327,-0.24826 -4.94794,-5.78595 -9.23414,-12.34599 -10.32202,-21.26066 -0.16718,-1.37008 1.33212,-3.97812 1.9902,-5.58738 -0.12962,-0.74308 -0.41002,-1.43656 -0.79742,-2.06845 -2.03343,-1.27117 -6.50531,-3.54383 -9.45848,-5.05441 -3.77758,-1.93256 -8.04164,-1.62366 -7.80561,-1.93758 0.86542,-1.15094 22.13849,-14.20655 25.53114,-14.75711 1.90031,-0.30837 2.58029,0.63755 24.90911,9.35593 14.54609,5.67956 33.6945,13.12775 42.55235,16.55166 8.85785,3.42391 17.24222,6.97702 18.6309,7.896 4.80032,3.1767 6.1315,9.62009 4.97346,24.05772 -0.37185,4.63591 -1.97544,19.57397 -3.56346,33.19642 l -2.88612,24.76878 3.19106,4.61725 c 4.21326,6.0947 12.85949,16.8754 18.1573,22.91352 0.40968,0.43376 0.82422,0.86415 1.24404,1.28857 1.03112,1.26512 2.87339,1.81544 4.40001,1.18062 0.62751,-0.29069 1.18641,-0.68318 1.70144,-1.13204 6.42763,-7.36905 21.06765,-25.56848 21.85569,-27.45117 1.1827,-2.82548 1.00534,-5.12023 -2.70666,-35.03143 -2.8783,-23.1933 -3.88491,-36.83724 -3.10335,-42.04906 0.50557,-3.3713 2.62118,-6.18793 5.90581,-7.86363 2.89096,-1.47485 75.75209,-28.81444 81.46162,-30.56665 4.32723,-1.328 4.62303,-0.69325 5.8289,1.27507 0.19831,0.0665 0.39293,0.14883 0.58425,0.24962 3.59106,2.19312 7.12523,4.48162 10.73354,6.64791 2.31651,1.45429 4.73315,2.78111 7.04461,4.27858 -1.19911,0.65462 -2.44314,1.22132 -3.67679,1.80669 -2.16346,1.08253 -4.44862,1.99863 -6.38886,3.47171 -1.69913,1.24334 -2.78651,3.1333 -3.39345,5.11917 -0.96911,3.28004 -1.37239,6.69376 -2.2587,9.99549 -1.67054,6.69847 -4.39878,13.1913 -8.50319,18.77258 -5.0071,6.8964 -11.9106,12.19696 -19.32442,16.28585 -9.6142,5.28137 -20.05321,8.85671 -30.52753,11.90742 -4.50003,3.37308 -8.53841,5.23462 -9.35188,5.96788 -0.339,0.30556 -0.64572,1.21385 -0.92562,2.62705 -0.37398,9.02178 -0.71491,18.04523 -1.06998,27.06797 -0.74398,18.82821 -1.42213,37.65924 -2.19258,56.48639 -0.14771,3.38656 -0.29964,6.77295 -0.45606,10.15875 -0.10022,17.86941 -0.2703,33.3109 -2.49617,58.79906 -1.05202,12.04657 -0.70129,23.55845 -0.40749,27.98683 0.0511,0.0393 0.10467,0.0768 0.15922,0.11334 0.70421,0.52497 1.5716,0.63798 2.39903,0.46821 1.20442,-0.85412 2.82635,-2.0876 4.77511,-3.62688 3.09913,-2.85929 6.20198,-5.71471 9.3114,-8.5612 20.62153,-18.7704 40.1352,-38.7529 58.52515,-59.71253 13.51109,-15.42572 26.44351,-31.3838 38.2144,-48.18425 1.17679,-1.75051 2.50545,-3.5103 2.94549,-5.61706 0.18165,-0.82158 0.22624,-1.64957 0.17675,-2.47459 -0.66901,-2.35997 -1.5531,-5.21615 -2.51911,-8.09029 -1.6929,-5.03689 -3.13959,-9.59988 -4.38787,-13.90707 -0.0785,-0.24628 -0.15609,-0.49172 -0.23342,-0.73671 -1.26551,-4.00821 -2.44348,-8.12792 -3.44607,-12.15839 -1.56946,-6.3474 -2.74401,-12.78786 -3.61878,-19.26641 -0.56078,-4.21474 -1.04551,-8.37739 -1.41809,-12.60096 -0.059,-0.66332 -0.10798,-1.44661 -0.14978,-2.03337 -0.0288,-0.52244 -0.0611,-1.18214 -0.0877,-1.61913 -0.26363,-5.45663 0.49811,-10.9844 1.55977,-16.27236 1.40734,-6.83731 3.16711,-13.61519 4.96132,-20.34044 2.5601,-9.67914 5.39599,-19.32808 7.70171,-29.10134 1.14314,-5.02568 2.29983,-10.06143 2.95222,-15.17944 0.15283,-1.62899 0.46596,-3.33241 -0.0432,-4.92892 -0.0319,-0.11468 -0.0717,-0.22393 -0.11739,-0.32923 -0.10209,-0.0813 -0.20876,-0.16602 -0.32113,-0.25502 -11.91735,-9.4387 -31.17006,-17.86922 -116.57806,-51.04068 z" /><path
         style="fill:#9e0f20;fill-opacity:1;stroke-width:0.624367"
         d="m 515.72653,198.83448 c -3.59774,-2.40453 -21.89378,-19.84824 -24.49188,-23.35093 -1.47104,-1.98322 -3.25538,-5.15808 -3.9652,-7.05524 -2.75072,-7.35196 -21.65064,-79.906107 -26.61549,-102.173166 -1.91938,-8.608262 -2.18733,-10.606994 -1.52841,-11.400927 2.31494,-2.789334 48.0612,-26.077948 53.3817,-27.175682 7.52927,-1.553452 13.84586,0.18469 29.67034,8.16442 16.09997,8.118651 36.99941,19.599306 37.69972,20.709544 0.46291,0.733858 0.4598,1.74856 -0.0104,3.412431 -0.3681,1.3024 -6.32018,23.159408 -13.22688,48.5711 -6.9067,25.41171 -13.76114,50.53443 -15.2321,55.82829 l -2.67444,9.62517 -12.51843,11.41511 c -6.88514,6.27829 -13.22902,11.97403 -14.09752,12.6572 -2.41523,1.89981 -4.35381,2.13419 -6.39096,0.77268 z"
         id="path8" /><path
         id="rect9"
         style="fill:#f32735;fill-opacity:1;stroke-width:0.690833"
         d="m 516.11755,27.165285 c -1.73143,-0.02627 -3.39646,0.155902 -5.12593,0.512727 -5.32049,1.097735 -51.06674,24.386574 -53.38168,27.175908 -0.65892,0.793933 -0.39065,2.793183 1.52873,11.401445 4.96485,22.267059 23.86524,94.821145 26.61596,102.173115 0.70982,1.89716 2.49315,5.07219 3.96419,7.0554 2.5981,3.50269 20.89444,20.94617 24.49219,23.35069 1.2161,0.81277 2.39779,1.05727 3.666,0.71782 V 27.262433 c -0.5966,-0.05661 -1.18232,-0.08839 -1.75946,-0.09715 z" /><path
         style="fill:#9d6b21;fill-opacity:1;stroke-width:0.624367"
         d="m 642.81739,272.52203 c -23.8933,-10.03973 -83.73244,-32.96951 -112.542,-43.12503 -6.61048,-2.33022 -12.01876,-4.40263 -12.0184,-4.60535 10e-4,-0.82008 7.04582,-7.60279 22.92605,-22.07442 20.97786,-19.11708 22.69941,-20.97306 24.08855,-25.96952 1.29043,-4.64143 1.59998,-4.70296 9.59623,-1.90765 39.71944,13.88503 71.49121,50.6006 82.34808,95.16173 1.82307,7.48264 1.8729,8.45089 0.43019,8.36047 -0.60096,-0.0376 -7.27387,-2.66577 -14.8287,-5.84023 z"
         id="path7" /><path
         style="fill:#e4a735;fill-opacity:1;stroke-width:0.624367"
         d="m 377.36541,277.96956 c 5.10496,-22.6757 11.01926,-38.55863 18.53627,-49.77944 8.91206,-13.30323 28.20502,-32.69686 41.5682,-41.78512 8.44911,-5.74622 28.11116,-15.01437 30.98076,-14.60349 0.97666,0.13986 1.63818,1.28115 2.86209,4.93793 0.87551,2.61582 2.3894,5.70644 3.36419,6.86803 1.98262,2.36254 14.9454,14.42302 32.06135,29.82967 6.25405,5.62948 11.37101,10.34562 11.37101,10.48031 0,0.44968 -5.77932,2.74877 -25.59902,10.18363 -32.36654,12.1415 -59.32196,22.58899 -87.94769,34.0871 -14.8896,5.9807 -27.15549,10.87402 -27.25756,10.87402 -0.10207,0 -0.0749,-0.49169 0.0604,-1.09264 z"
         id="path6" /><path
         id="path10"
         style="fill:#e4a735;fill-opacity:1;stroke-width:0.624367"
         d="m 519.99829,244.03825 -0.98363,0.14438 c -15.41964,2.25465 -51.48925,15.45901 -113.75131,41.64293 -21.55169,9.06342 -38.73727,17.84387 -45.11463,23.039 -0.10118,0.18112 -0.18882,0.37121 -0.26175,0.5721 -0.37415,1.16023 -0.0241,2.3909 0.10794,3.56481 0.89342,4.8061 2.07757,9.55377 3.20589,14.30915 2.78789,11.42799 5.73628,22.81488 8.67994,34.20432 1.67641,6.58238 3.4443,13.14346 4.92488,19.77374 0.13417,0.61688 0.29178,1.35601 0.39399,1.90115 0.16,0.86033 0.29922,1.68465 0.41693,2.59062 0.41239,2.76342 0.19047,5.55775 0.0405,8.33182 -0.20803,3.63481 -0.50173,7.34058 -0.89863,11.00341 -0.23833,2.15808 -0.53107,4.51276 -0.85004,6.65466 -0.16044,1.12793 -0.36373,2.34663 -0.53702,3.41233 -1.30986,7.69368 -3.16566,15.28787 -5.41737,22.75836 -0.47386,1.60953 -0.97537,3.21061 -1.4923,4.80615 -1.1823,4.01175 -2.54413,8.34071 -4.11936,13.11638 -1.19267,3.61583 -2.27807,7.10309 -3.07637,9.83627 -0.0417,0.31343 -0.0726,0.62856 -0.089,0.94585 -0.0932,1.12147 0.32747,2.19288 0.91481,3.12764 2.38144,3.75453 5.07374,7.30176 7.74758,10.85094 9.55515,12.48133 19.41761,24.72711 29.57359,36.72478 4.24043,5.04524 8.60637,9.98484 13.13797,14.7706 7.56481,7.99861 15.29763,15.83765 23.0633,23.6408 9.59052,9.5873 19.23959,19.11748 29.08379,28.44558 2.82903,2.63963 5.64533,5.30229 8.61518,7.78266 1.81996,-0.0893 3.07965,-0.47494 3.23962,-0.47494 0.48484,0 0.59605,-2.93089 0.43312,-5.80596 -5.84512,-103.14435 -10.13788,-169.53713 -10.26804,-171.22133 l -0.4601,-5.95439 -12.8101,-4.27588 c -20.48262,-7.201 -26.29367,-12.17826 -33.6943,-20.07328 -4.08488,-3.25627 -7.73195,-7.04556 -10.58377,-11.43923 -0.0541,-0.0813 -0.10864,-0.1641 -0.16327,-0.24826 -4.94794,-5.78595 -9.23414,-12.34599 -10.32202,-21.26066 -0.16718,-1.37008 1.33212,-3.97812 1.9902,-5.58738 -0.12962,-0.74307 -0.41002,-1.43656 -0.79742,-2.06845 -2.03343,-1.27117 -6.50531,-3.54383 -9.45848,-5.05441 -3.77758,-1.93256 -8.04164,-1.62366 -7.80561,-1.93758 0.86542,-1.15094 22.13849,-14.20655 25.53114,-14.75711 1.90031,-0.30837 2.58029,0.63755 24.90911,9.35593 14.54609,5.67956 33.6945,13.12775 42.55235,16.55166 8.85785,3.42391 17.24222,6.97702 18.6309,7.896 4.80032,3.1767 6.1315,9.62009 4.97346,24.05772 -0.37185,4.63591 -1.97544,19.57397 -3.56346,33.19642 l -2.88612,24.76878 3.19106,4.61725 c 4.21326,6.0947 12.85949,16.8754 18.1573,22.91352 0.40968,0.43376 0.82422,0.86415 1.24404,1.28857 1.03112,1.26512 2.87339,1.81544 4.40001,1.18062 0.0829,-0.0384 0.16497,-0.0782 0.24557,-0.12008 z" /><path
         style="fill:#000000;fill-opacity:1;stroke-width:0.690833"
         d="m 493.94175,631.31735 c -0.98209,-0.8429 -5.07889,-4.25142 -9.10398,-7.57447 C 433.2455,581.149 382.09586,526.52614 347.52927,477.11072 c -6.76542,-9.67166 -6.76542,-9.67166 -3.3659,-16.57999 10.71605,-21.77659 17.88784,-50.13018 17.88784,-70.71935 0,-7.20591 -5.70736,-32.39207 -15.92141,-70.25997 -2.26201,-8.38624 -4.11274,-15.85847 -4.11274,-16.60493 0,-1.16444 4.29663,-4.70968 15.12649,-12.48122 0.15047,-0.10798 1.12745,-5.25445 2.17107,-11.43662 10.19282,-60.37999 44.56297,-102.95115 98.58967,-122.11401 3.51461,-1.2466 6.3902,-2.50314 6.3902,-2.79229 0,-0.28916 -5.90036,-23.95082 -13.1119,-52.58148 -7.21155,-28.630653 -13.23876,-52.577797 -13.3938,-53.215878 -0.22162,-0.912086 5.86837,-4.375646 28.48293,-16.199071 15.82066,-8.271414 33.85223,-17.761923 40.07015,-21.090021 11.3053,-6.0510864 11.3053,-6.0510864 19.68873,-1.6543976 26.67412,13.9892316 71.96977,37.8599806 72.14215,38.0188166 0.11115,0.102416 -1.03702,5.121083 -2.55148,11.152593 -1.51447,6.031511 -7.28982,29.618869 -12.83411,52.416358 -5.5443,22.79749 -10.23178,41.94925 -10.41662,42.55947 -0.26471,0.8739 1.2441,1.66258 7.10536,3.71409 53.11462,18.59075 92.27481,69.62259 98.67601,128.59021 0.45897,4.22804 0.45897,4.22804 8.30108,10.01708 4.31316,3.18397 7.85263,6.21697 7.86549,6.73998 0.0317,1.28802 -7.45937,32.06677 -12.46293,51.20695 -6.55147,25.0614 -7.73387,31.56705 -7.21962,39.72289 1.48881,23.61214 6.81055,44.60681 16.42108,64.78254 4.20375,8.82507 4.20375,8.82507 -0.34203,15.54374 -32.83885,48.53591 -91.50466,111.12937 -145.0206,154.72964 -6.85954,5.58857 -7.08988,5.56424 -6.54103,-0.69084 0.53174,-6.05994 1.97008,-55.86856 1.62335,-56.21528 -0.13496,-0.13496 -5.19682,1.97202 -11.2486,4.68216 -13.21082,5.91617 -10.21119,5.91697 -23.25568,-0.006 -5.97893,-2.71497 -10.99625,-4.93626 -11.14959,-4.93626 -0.15333,0 -0.15601,2.56472 -0.006,5.69937 0.15006,3.13466 0.58568,14.24843 0.96803,24.69728 0.38236,10.44885 0.89154,21.71806 1.13151,25.04269 0.48449,6.7125 0.0426,7.3156 -3.27466,4.46859 z m -17.50941,-49.02731 c -0.5881,-11.34598 -3.92081,-68.03116 -6.22446,-105.87015 -0.94842,-15.57828 -2.20615,-37.16373 -2.79496,-47.96764 -0.58882,-10.80392 -1.14275,-19.7094 -1.23096,-19.78995 -0.0882,-0.0806 -5.91157,-2.06168 -12.9408,-4.4025 -36.96724,-12.31058 -51.80188,-27.24178 -54.98066,-55.33855 -0.47382,-4.18798 -0.47382,-4.18798 -8.45531,-8.18986 -7.89254,-3.95727 -7.9627,-4.01365 -6.29628,-5.05904 26.22708,-16.45274 23.62867,-15.35457 30.20189,-12.76427 21.29415,8.39139 64.50961,25.18866 74.24472,28.85793 14.06064,5.2996 14.29284,7.11899 7.75488,60.76246 -1.32051,10.83465 -2.39686,20.6272 -2.39188,21.76123 0.008,1.85503 16.97624,23.71165 23.77231,30.62113 1.59023,1.61676 1.59023,1.61676 9.08146,-7.59917 4.12017,-5.06876 9.80308,-11.96376 12.62869,-15.32222 6.01938,-7.15454 5.9091,-4.99059 1.8892,-37.07076 -6.21951,-49.63388 -6.413,-48.44003 8.76115,-54.05811 6.92781,-2.56495 27.66594,-10.36226 46.08474,-17.32736 33.4887,-12.6638 33.4887,-12.6638 39.03206,-9.10177 3.04884,1.95912 8.57438,5.36477 12.27897,7.56811 8.288,4.92935 8.30033,4.78081 -0.75532,9.09509 -7.41402,3.53217 -7.41402,3.53217 -9.20725,12.59949 -5.37857,27.19636 -22.13133,41.68383 -61.15717,52.88754 -8.15334,2.34069 -8.15334,2.34069 -8.31397,6.38364 -0.53048,13.3523 -2.36081,60.76899 -2.95607,76.5804 -0.68231,18.12365 -2.59268,55.43079 -4.42189,86.35412 -1.04878,17.72998 -1.32708,16.49205 2.84057,12.63518 1.82399,-1.68798 7.51316,-6.91333 12.6426,-11.61189 34.86186,-31.93343 70.65465,-72.02888 93.43932,-104.6717 3.874,-5.55014 3.874,-5.55014 -0.30013,-17.27083 -7.32302,-20.56254 -10.2117,-33.28115 -12.28898,-54.10739 -1.37294,-13.76473 -0.27728,-19.95548 10.34916,-58.4749 4.69877,-17.03243 7.55154,-31.65352 6.35729,-32.58252 -14.38418,-11.18938 -28.4175,-17.45221 -109.64624,-48.93317 -16.3382,-6.33201 -33.24214,-12.89151 -37.5643,-14.57665 -8.24836,-3.21589 -48.11575,10.815 -131.68977,46.34675 -11.15424,4.74226 -30.0933,15.58627 -31.66616,18.13122 -0.5321,0.86095 2.92937,15.50101 11.37089,48.09236 7.00481,27.04448 7.00481,27.04448 6.54953,35.33448 -1.09608,19.95781 -4.21003,35.18821 -11.55101,56.49619 -4.2344,12.29083 -5.36754,16.34439 -4.86751,17.41245 2.33314,4.98353 29.34022,39.04428 44.48448,56.10287 14.66873,16.52295 65.99656,67.2213 68.05594,67.2213 0.19562,0 0.14218,-4.1191 -0.11877,-9.15354 z M 421.80826,260.87835 c 21.66204,-8.60712 52.13572,-20.26945 80.39344,-30.7667 11.99282,-4.45512 15.2285,-5.90778 14.4434,-6.48439 -2.06884,-1.51944 -35.59205,-31.96909 -39.97246,-36.30761 -4.12893,-4.08945 -4.66174,-4.94863 -5.79178,-9.3396 -1.72278,-6.69417 -1.15333,-6.61659 -12.60208,-1.7171 -17.38476,7.43981 -25.28514,12.82537 -40.52223,27.62334 -23.21785,22.54873 -30.85581,36.92242 -38.79714,73.01127 -0.3042,1.38243 0.58756,1.12887 10.55038,-2.99992 5.98546,-2.48049 20.51977,-8.33917 32.29847,-13.01929 z m 234.39906,10.53686 c -9.51103,-44.14254 -40.85408,-81.41432 -79.99789,-95.13 -9.98359,-3.49816 -9.18241,-3.65504 -10.67243,2.08982 -1.26711,4.88539 -1.26711,4.88539 -24.33763,25.72509 -23.07053,20.8397 -23.07053,20.8397 -19.07293,22.14703 24.05979,7.86822 103.02268,38.05352 128.34753,49.06365 7.61002,3.30851 7.32699,3.50081 5.73335,-3.89559 z M 533.10966,186.20133 c 7.93661,-7.06703 14.66343,-13.25707 14.9485,-13.75563 0.50655,-0.88595 11.34791,-40.45805 22.61493,-82.546847 3.10226,-11.588722 6.35775,-23.476873 7.23443,-26.418115 1.85558,-6.225482 3.13667,-4.82763 -11.71517,-12.782931 -50.31485,-26.950854 -45.68952,-26.344792 -77.02787,-10.093069 -33.7963,17.52639 -29.8826,14.583663 -28.34851,21.315381 0.69272,3.039665 2.3811,10.656098 3.75197,16.925407 1.37086,6.269309 5.32722,21.968484 8.79189,34.887064 3.46468,12.91858 8.38967,31.41563 10.94444,41.10456 4.64502,17.61624 4.64502,17.61624 19.0874,30.89189 17.23458,15.84228 12.54052,15.76768 29.71799,0.47229 z"
         id="path1" /></g></g></svg>
